<?xml version="1.0" standalone="no"?>
<!DOCTYPE svg PUBLIC "-//W3C//DTD SVG 20010904//EN"
 "http://www.w3.org/TR/2001/REC-SVG-20010904/DTD/svg10.dtd">
<svg version="1.0" xmlns="http://www.w3.org/2000/svg"
 width="930.000000pt" height="930.000000pt" viewBox="0 0 930.000000 930.000000"
 preserveAspectRatio="xMidYMid meet">
<metadata>
Created by potrace 1.11, written by Peter Selinger 2001-2013
</metadata>
<g transform="translate(0.000000,930.000000) scale(0.100000,-0.100000)"
fill="#000000" stroke="none">
<path d="M7066 9285 c4 -9 0 -15 -8 -15 -24 0 -38 -21 -28 -40 8 -14 2 -23
-25 -41 -34 -23 -45 -52 -25 -64 17 -10 -1 -35 -34 -44 -17 -5 -23 -10 -12
-10 13 -1 16 -6 11 -18 -4 -10 -8 -26 -9 -36 -2 -10 -8 -22 -15 -27 -20 -12
-2 -32 25 -27 13 2 21 0 18 -4 -3 -5 0 -9 6 -9 6 0 8 -4 5 -10 -3 -5 2 -10 11
-10 14 0 15 -3 6 -12 -17 -17 -15 -28 4 -28 12 0 15 -6 10 -25 -7 -27 11 -36
20 -10 4 8 11 12 18 8 6 -4 17 -8 24 -9 18 -3 29 -14 14 -14 -7 0 -12 -6 -12
-14 0 -8 -7 -21 -15 -30 -10 -10 -12 -17 -4 -21 6 -4 16 -2 22 4 6 6 15 11 21
11 5 0 6 -3 3 -7 -4 -3 1 -12 11 -19 10 -8 12 -13 5 -14 -7 0 -12 -10 -10 -22
2 -19 -3 -23 -27 -23 -17 -1 -32 -7 -34 -15 -3 -8 -11 -19 -18 -25 -10 -7 -11
-20 -5 -46 8 -33 6 -38 -15 -50 -26 -13 -33 -32 -9 -23 11 5 13 -2 9 -35 -3
-24 -1 -41 5 -41 6 0 8 -7 5 -15 -4 -10 -13 -13 -26 -9 -13 4 -19 1 -17 -8 5
-41 -2 -70 -16 -64 -9 3 -19 -3 -25 -14 -6 -12 -21 -20 -35 -20 -16 0 -25 -6
-25 -15 0 -19 -29 -20 -36 -1 -4 10 -15 5 -41 -19 -20 -18 -33 -38 -29 -44 4
-6 3 -11 -2 -11 -5 0 -12 -9 -15 -20 -6 -24 5 -26 23 -5 7 9 20 13 28 10 8 -3
26 2 39 10 16 11 44 15 86 14 34 -1 73 2 86 6 23 7 23 6 17 -36 -3 -24 -6 -54
-6 -66 0 -12 -5 -25 -10 -28 -6 -3 -10 5 -10 18 0 22 -5 25 -57 30 -32 3 -59
2 -61 -3 -2 -5 -10 -6 -19 -3 -12 5 -14 1 -8 -17 5 -17 4 -21 -5 -15 -10 6
-11 1 -6 -19 4 -17 2 -26 -5 -26 -8 0 -7 -5 2 -16 11 -13 9 -15 -17 -12 -24 3
-29 -1 -30 -22 -1 -13 6 -30 14 -36 14 -10 14 -13 -1 -28 -9 -10 -17 -30 -17
-46 0 -31 -33 -60 -45 -40 -4 6 -10 8 -15 5 -5 -3 -10 2 -12 11 -2 13 -8 11
-31 -12 -27 -27 -28 -27 -33 -7 -4 13 -11 20 -20 16 -8 -3 -14 0 -14 6 0 6 10
12 23 13 12 0 0 4 -28 7 l-50 6 26 18 c15 10 50 20 78 24 60 7 70 17 45 44
-15 17 -16 24 -6 39 7 11 12 27 12 35 0 9 7 18 15 21 8 4 15 10 15 14 0 12
-57 5 -74 -9 -10 -8 -16 -9 -21 -1 -3 6 -11 8 -16 5 -5 -4 -12 0 -15 8 -4 12
-25 15 -87 16 -44 0 -85 5 -91 11 -7 7 -6 10 3 10 7 0 10 4 6 10 -7 11 -93 11
-100 0 -6 -10 -43 -1 -51 11 -3 5 5 18 18 29 20 17 21 21 8 30 -8 5 -23 10
-33 10 -11 0 -17 6 -15 17 2 10 -4 19 -14 21 -11 2 -18 -3 -18 -11 0 -10 -7
-13 -20 -10 -14 4 -20 0 -20 -11 0 -9 -6 -16 -14 -16 -11 0 -15 12 -14 40 0
22 4 40 8 40 16 0 18 44 3 67 -13 20 -22 24 -45 19 -33 -6 -35 2 -10 46 10 18
17 39 15 45 -9 26 28 25 52 -1 13 -14 33 -26 43 -26 11 0 33 -7 48 -15 16 -8
37 -15 46 -15 20 0 32 16 18 25 -6 4 -8 11 -5 16 4 5 -3 9 -14 9 -25 0 -71 20
-71 32 0 4 17 16 38 25 20 10 39 18 41 20 9 6 -11 72 -25 77 -8 3 -13 2 -10
-3 3 -5 -16 -6 -41 -3 -33 3 -53 12 -65 27 -15 19 -27 22 -88 22 -47 0 -74 -4
-81 -13 -6 -8 -24 -14 -40 -14 -15 0 -30 -4 -33 -9 -3 -4 -18 -11 -33 -14 -16
-3 -36 -9 -45 -12 -15 -6 -18 -1 -18 34 0 34 -3 41 -19 41 -12 0 -23 -11 -30
-30 -11 -33 -28 -38 -46 -14 -10 15 -14 12 -34 -19 -12 -20 -31 -39 -42 -42
-13 -4 -18 -12 -15 -21 3 -8 2 -13 -3 -9 -5 3 -12 -1 -14 -7 -3 -7 -6 -4 -6 6
-1 19 -2 19 -23 -2 -18 -16 -27 -18 -41 -11 -19 11 -57 3 -57 -12 0 -6 5 -7
11 -3 8 4 9 0 4 -15 -4 -12 -2 -21 4 -21 6 0 11 -7 11 -16 0 -9 -5 -12 -11 -8
-9 5 -10 -14 -7 -69 4 -64 2 -79 -12 -92 -16 -14 -18 -14 -23 5 -3 11 -13 20
-24 19 -10 0 -13 -3 -7 -5 14 -6 6 -50 -11 -64 -21 -18 -58 5 -46 28 23 42 31
86 19 94 -10 6 -10 8 0 8 7 0 12 14 12 37 0 34 -1 35 -14 18 -8 -11 -12 -24
-9 -29 4 -5 1 -6 -5 -2 -7 4 -12 2 -12 -3 0 -6 -6 -11 -14 -11 -8 0 -17 -11
-20 -25 -4 -14 -13 -25 -21 -25 -9 0 -20 -11 -27 -25 -6 -13 -15 -22 -21 -18
-5 3 -5 8 2 13 9 5 7 11 -4 20 -13 11 -17 9 -28 -19 -6 -17 -17 -31 -24 -31
-7 0 -13 -5 -13 -10 0 -6 -3 -9 -7 -8 -15 3 -43 -14 -43 -27 0 -7 -7 -18 -16
-26 -13 -10 -19 -10 -37 0 -17 11 -22 11 -32 -3 -7 -9 -21 -16 -33 -16 -26 0
-65 -75 -52 -100 8 -14 5 -16 -15 -12 -15 2 -25 0 -25 -7 0 -6 3 -10 8 -10 28
5 39 -3 35 -23 -4 -20 -11 -23 -50 -23 -28 0 -48 -5 -50 -12 -3 -7 -9 -13 -14
-13 -5 0 -4 9 3 20 7 11 19 18 26 15 9 -3 11 1 7 14 -4 13 0 23 11 29 15 8 15
9 0 15 -10 4 -26 -1 -38 -13 -12 -11 -25 -20 -30 -20 -4 0 -8 -8 -8 -18 0 -10
-6 -27 -14 -38 -8 -10 -13 -30 -10 -44 5 -20 3 -22 -6 -10 -9 11 -13 12 -17 3
-7 -18 -58 -16 -77 2 -21 21 -26 19 -26 -13 0 -15 -7 -37 -15 -49 -10 -14 -12
-24 -5 -28 18 -11 10 -23 -15 -21 -14 0 -25 7 -25 16 0 22 -20 -2 -25 -31 -3
-13 -13 -30 -22 -37 -10 -7 -17 -18 -15 -23 1 -5 -7 -9 -18 -9 -17 0 -19 4
-14 28 6 24 5 25 -8 14 -11 -9 -18 -10 -23 -2 -9 14 -26 13 -24 -2 4 -32 -1
-41 -15 -29 -17 14 -21 8 -30 -43 -6 -30 -10 -36 -17 -25 -8 12 -13 10 -28 -8
-17 -21 -20 -21 -26 -5 -6 16 -7 16 -16 0 -12 -22 -45 -23 -53 -2 -11 29 -35
-4 -48 -67 -6 -32 -18 -61 -25 -63 -7 -3 -13 -1 -13 3 0 21 -35 2 -38 -20 -5
-32 -20 -49 -43 -49 -21 0 -26 -16 -6 -23 6 -3 3 -5 -8 -5 -11 1 -28 -3 -37
-7 -14 -6 -18 -2 -19 19 -1 14 -3 31 -4 36 -1 6 -3 15 -4 21 0 5 -5 8 -9 5 -5
-3 -6 -27 -1 -53 5 -36 4 -52 -7 -63 -12 -12 -16 -12 -29 5 -8 11 -15 33 -15
49 0 16 -3 26 -7 23 -3 -4 -12 -2 -20 4 -10 9 -13 8 -13 0 0 -7 -5 -9 -11 -5
-6 3 -15 0 -20 -7 -7 -11 -19 -9 -61 15 -89 49 -228 71 -292 46 -21 -8 -24 -7
-19 6 5 14 3 14 -16 3 -11 -8 -21 -17 -21 -20 0 -11 -48 -17 -58 -7 -5 5 -35
13 -67 18 -47 8 -64 7 -82 -5 -12 -8 -31 -15 -43 -15 -11 0 -20 -4 -20 -8 0
-4 -17 -6 -37 -5 -38 4 -38 4 -13 -11 24 -14 24 -15 4 -16 -34 0 -92 -120
-103 -212 -13 -103 -8 -219 12 -248 8 -14 21 -44 28 -67 7 -24 18 -43 25 -43
7 0 10 -8 7 -20 -8 -29 11 -25 27 6 13 24 15 24 27 8 11 -15 10 -21 -7 -36
-21 -20 -27 -53 -10 -63 5 -3 20 6 33 21 21 23 26 25 46 15 25 -14 28 -12 46
21 8 16 19 22 36 20 13 -1 26 -7 27 -12 2 -6 30 -10 62 -10 32 0 61 -4 64 -9
10 -16 77 -22 112 -11 19 6 32 15 29 20 -3 5 9 14 25 22 30 13 30 13 8 20 -13
3 -63 6 -113 7 -62 1 -86 4 -79 11 8 8 43 8 107 3 54 -5 97 -6 97 -2 0 4 17 3
38 -2 26 -6 55 -4 93 6 29 8 68 14 84 14 30 -1 -44 -21 -127 -35 l-36 -6 16
-44 c17 -45 29 -55 38 -30 4 10 15 13 39 9 24 -4 44 1 69 17 l36 22 29 -24
c32 -25 40 -55 17 -64 -8 -3 -12 -13 -9 -24 3 -10 -4 -27 -15 -38 -28 -28 -65
-18 -113 29 -22 22 -42 39 -44 39 -13 0 -3 -40 13 -49 31 -18 0 -29 -100 -37
-96 -7 -98 -6 -98 15 0 11 -6 21 -12 21 -16 -1 -68 -46 -68 -59 0 -5 -9 -13
-20 -16 -36 -11 -51 -34 -39 -57 8 -15 17 -18 35 -14 20 5 24 3 24 -17 0 -29
10 -40 25 -27 13 11 55 2 55 -12 0 -5 4 -7 9 -3 6 3 14 -3 20 -12 8 -15 23
-18 84 -18 43 0 80 5 89 12 11 10 19 9 36 -3 12 -8 22 -20 22 -26 0 -11 -54
-67 -67 -69 -22 -4 -56 -7 -130 -13 -104 -8 -166 14 -238 85 -58 56 -89 65
-79 22 4 -16 19 -44 34 -63 15 -19 30 -43 33 -53 4 -10 11 -16 16 -13 5 4 16
-1 24 -9 9 -8 27 -19 41 -25 20 -7 26 -17 26 -39 0 -16 7 -42 15 -57 13 -26
13 -29 0 -32 -20 -4 -18 -40 4 -77 14 -25 25 -31 60 -33 26 -2 52 3 65 12 17
10 26 12 34 4 6 -6 18 -7 29 -3 27 13 57 14 64 3 3 -5 20 -11 37 -13 28 -4 34
1 53 36 13 21 25 39 29 39 8 0 30 -62 30 -87 0 -11 -7 -37 -15 -56 -8 -20 -19
-65 -25 -99 -5 -35 -16 -87 -25 -117 -12 -46 -14 -111 -9 -400 3 -190 10 -381
15 -425 6 -43 8 -80 6 -83 -3 -2 -1 -21 4 -41 13 -55 40 -263 38 -292 -1 -14
3 -36 8 -50 9 -21 22 -90 28 -150 1 -8 6 -24 12 -35 6 -11 14 -36 18 -55 4
-19 11 -39 14 -45 4 -5 16 -32 26 -60 10 -27 33 -83 52 -124 19 -41 32 -80 29
-88 -3 -7 0 -12 6 -10 6 1 22 -17 35 -40 l24 -42 -24 -15 c-13 -9 -59 -26
-103 -38 -66 -18 -106 -22 -244 -22 -216 -1 -343 25 -520 107 -36 16 -103 44
-150 62 l-85 33 1 56 c0 63 7 75 29 56 21 -17 29 -7 16 18 -15 28 -14 39 4 39
8 0 12 -4 9 -9 -3 -4 4 -8 16 -8 19 0 21 4 15 30 -4 16 -3 39 0 51 6 18 13 21
46 16 21 -3 39 -2 39 2 0 4 -20 26 -45 51 -38 38 -43 46 -33 64 7 12 13 34 15
50 4 39 6 40 33 16 13 -11 26 -17 29 -14 3 4 0 9 -6 11 -19 7 -16 53 3 53 11
0 14 5 9 18 -4 9 -9 23 -12 30 -7 17 59 45 69 29 4 -6 10 -8 15 -4 4 5 0 20
-9 35 -35 57 -78 151 -78 171 0 17 5 20 33 16 32 -4 97 13 97 25 0 4 -20 27
-45 52 -44 45 -55 77 -36 107 5 8 16 11 25 8 26 -10 36 31 19 75 -14 34 -13
46 6 135 39 189 53 299 54 423 0 86 -4 133 -13 150 -11 21 -35 134 -44 210 -2
14 -9 36 -16 49 -11 22 -10 23 6 19 15 -4 19 1 20 25 1 16 8 34 17 38 13 8 15
23 11 80 -2 39 -11 84 -19 99 -9 18 -15 57 -15 102 0 116 -15 142 -53 98 -9
-11 -15 -20 -12 -20 3 0 -4 -9 -15 -20 -11 -11 -24 -20 -29 -20 -5 0 -12 -6
-14 -12 -4 -10 -6 -9 -6 1 -1 19 -41 -16 -41 -36 0 -7 -6 -13 -14 -13 -17 0
-28 -37 -12 -44 6 -2 3 -5 -6 -5 -9 -1 -28 -16 -42 -33 -28 -36 -37 -18 -10
20 8 12 14 22 12 22 -2 0 -44 -16 -94 -36 -117 -47 -248 -112 -306 -152 -30
-20 -45 -27 -42 -17 7 17 104 85 123 85 6 0 57 22 113 50 56 27 105 47 110 44
4 -3 8 32 9 78 1 93 7 95 11 3 3 -58 4 -60 28 -57 35 5 82 43 105 85 10 20 29
41 42 48 13 7 23 16 23 21 0 4 5 8 11 8 6 0 26 12 46 27 33 25 35 30 29 67 -4
23 -12 58 -18 79 -10 34 -14 37 -48 37 -59 0 -100 63 -100 151 0 22 -3 39 -6
39 -3 0 -19 -14 -34 -30 -17 -18 -34 -28 -43 -24 -10 4 -21 -4 -30 -23 l-15
-28 -11 27 c-14 37 -27 42 -49 18 l-20 -21 -7 28 -7 28 -20 -42 c-17 -37 -22
-41 -43 -33 -27 10 -35 5 -35 -24 -1 -19 -2 -19 -15 4 l-14 25 -1 -29 c0 -23
-4 -27 -19 -23 -14 3 -21 -2 -25 -19 -10 -40 -37 -64 -57 -53 -20 10 -23 6
-33 -33 -7 -30 -53 -81 -66 -73 -11 7 -7 -29 5 -37 16 -11 -10 -30 -41 -30
-15 0 -33 7 -39 16 -15 20 -35 21 -35 2 0 -7 -6 -19 -14 -25 -10 -9 -15 -8
-20 4 -10 28 -26 16 -26 -20 0 -22 -6 -38 -15 -41 -8 -4 -15 -14 -16 -23 0
-10 -2 -11 -6 -3 -8 20 -20 14 -27 -13 -6 -24 -36 -36 -36 -14 0 5 -5 7 -10 4
-6 -3 -7 -17 -4 -31 4 -15 2 -24 -6 -24 -7 0 -10 7 -7 15 11 26 -10 25 -37 -2
-16 -16 -39 -27 -54 -28 -23 0 -27 -4 -27 -30 -1 -20 -6 -31 -17 -33 -10 -2
-20 -12 -23 -23 -7 -22 -21 -25 -28 -6 -4 7 -6 6 -6 -4 -1 -10 -9 -16 -18 -15
-12 0 -19 -7 -21 -21 -4 -24 -27 -32 -34 -11 -2 6 -10 -15 -17 -48 -21 -92
-20 -91 -40 -61 -10 15 -20 24 -24 21 -3 -4 -17 -8 -29 -9 -13 -1 -28 -3 -34
-4 -13 -1 -64 -78 -64 -97 0 -17 -16 -18 -24 -1 -5 10 -7 10 -12 0 -3 -7 -16
-13 -30 -13 -18 0 -25 -7 -32 -32 -5 -18 -14 -32 -19 -31 -6 1 -21 -9 -33 -22
-13 -14 -32 -25 -42 -25 -15 0 -21 -10 -20 -40 0 -3 2 -14 6 -25 5 -17 1 -21
-19 -23 -21 -1 -25 3 -25 23 0 33 -18 32 -30 -1 -9 -22 -15 -25 -36 -20 -20 5
-25 4 -21 -7 7 -18 -1 -28 -38 -52 -57 -37 -72 -43 -89 -33 -9 5 -14 14 -10
20 4 7 9 6 14 -2 5 -9 9 -9 14 -1 4 6 2 11 -3 11 -6 0 -11 10 -11 23 0 20 -2
19 -21 -10 -12 -18 -25 -33 -31 -33 -5 0 -7 -13 -3 -30 4 -20 3 -30 -5 -30
-17 0 -54 -49 -60 -79 -3 -15 -10 -25 -15 -24 -20 4 -55 -41 -55 -69 0 -26 -2
-28 -28 -22 -15 4 -29 7 -32 6 -28 0 -31 -4 -24 -38 7 -36 7 -36 -24 -29 -25
5 -36 1 -60 -22 -16 -15 -30 -31 -31 -35 -3 -18 -15 -11 -30 17 -34 61 -44 72
-61 68 -10 -3 -21 0 -25 7 -4 7 -15 3 -30 -14 -13 -14 -30 -24 -37 -21 -14 6
-44 -33 -33 -43 3 -3 14 -1 25 6 23 14 26 8 24 -41 -1 -46 -8 -54 -29 -33 -9
9 -22 16 -29 16 -7 0 -24 8 -37 18 -17 14 -35 18 -61 14 -39 -4 -47 -17 -29
-50 6 -11 5 -23 -4 -35 -12 -16 -14 -16 -29 7 -9 14 -16 32 -16 41 0 11 -11
15 -41 15 -32 0 -42 -4 -46 -20 -3 -11 -9 -20 -14 -20 -5 0 -9 -7 -9 -15 0 -8
-4 -16 -10 -16 -5 -1 -14 -3 -20 -4 -5 -1 -14 -3 -19 -4 -5 0 -12 -17 -15 -36
-5 -26 -11 -33 -23 -28 -10 4 -14 2 -9 -5 3 -6 2 -13 -4 -17 -5 -3 -10 -2 -10
3 0 13 -81 21 -102 11 -10 -6 -14 -16 -11 -29 3 -12 -2 -29 -12 -39 -14 -17
-21 -34 -24 -63 -1 -4 -19 -1 -41 7 -32 11 -40 12 -40 1 0 -7 -9 -21 -21 -32
-16 -15 -24 -16 -39 -6 -16 10 -21 9 -29 -6 -5 -9 -13 -14 -17 -10 -11 11 -44
-11 -44 -30 0 -9 -7 -26 -15 -36 -13 -17 -15 -114 -15 -670 l0 -650 71 69 c39
39 105 111 147 160 42 50 95 110 117 135 71 77 205 221 297 319 49 51 102 110
118 130 l29 36 -1 265 c-2 428 -5 391 45 426 50 36 149 68 195 65 23 -2 38 3
47 16 9 10 14 13 15 6 0 -10 26 -13 97 -13 129 0 220 -17 261 -48 37 -28 40
-42 13 -59 -24 -15 -122 -29 -101 -14 11 8 5 9 -25 6 -32 -4 -36 -3 -20 5 15
8 4 9 -40 4 -33 -3 -95 -9 -138 -13 -82 -7 -96 -15 -98 -61 -1 -25 -1 -25 -7
-2 -13 45 -27 17 -23 -48 3 -64 10 -87 18 -62 10 26 21 10 16 -23 -9 -58 14
-40 27 20 13 61 5 135 -13 136 -7 0 8 6 33 13 35 10 49 10 65 1 21 -13 21 -13
23 -92 2 -46 5 -53 22 -53 26 0 25 -2 -6 -50 -19 -29 -25 -49 -22 -75 2 -21 0
-34 -7 -34 -26 3 -35 -2 -35 -20 0 -11 -4 -22 -9 -25 -5 -4 -7 3 -4 13 3 13
-2 21 -15 25 -19 6 -46 59 -36 69 3 2 -7 7 -21 9 -21 5 -25 1 -27 -21 -3 -48
2 -66 24 -82 16 -12 19 -23 14 -43 -6 -23 -9 -25 -27 -15 -16 8 -20 18 -17 40
5 31 -13 56 -32 44 -5 -3 -10 -22 -10 -41 0 -42 -13 -43 -42 -4 -23 31 -44 41
-35 15 4 -8 2 -17 -4 -21 -6 -3 -13 -14 -17 -24 -7 -18 -8 -18 -30 -2 -20 16
-22 26 -24 125 -1 71 3 112 10 119 7 7 12 42 12 81 0 60 -2 68 -17 65 -17 -3
-18 -26 -19 -306 0 -166 1 -302 2 -302 1 0 23 21 48 46 26 25 52 44 58 42 7
-3 23 8 36 23 14 17 29 26 38 22 12 -4 11 -8 -5 -19 -11 -8 -30 -28 -42 -45
l-22 -32 26 18 c24 15 27 15 27 2 0 -9 -9 -19 -20 -22 -11 -3 -20 -14 -20 -24
0 -10 -10 -23 -23 -30 -22 -12 -30 -51 -14 -68 12 -12 8 -35 -5 -27 -10 6 -10
5 -1 -7 7 -9 9 -19 4 -25 -5 -5 -12 -20 -16 -34 -7 -22 -6 -23 9 -8 9 9 16 20
16 25 0 16 22 32 36 26 22 -8 -45 -98 -92 -123 -33 -18 -45 -33 -59 -72 -9
-26 -21 -48 -26 -48 -5 0 -9 -6 -9 -13 0 -8 -9 -22 -19 -31 -11 -10 -29 -37
-40 -59 -11 -23 -35 -58 -53 -77 -19 -19 -54 -66 -80 -105 -25 -38 -64 -88
-87 -110 -23 -21 -41 -45 -41 -52 0 -18 -17 -16 -24 3 -4 10 15 39 59 87 38
42 65 80 65 93 0 12 7 27 15 34 17 14 20 30 5 30 -5 0 -21 -24 -35 -54 -17
-35 -58 -88 -117 -148 -50 -51 -101 -109 -113 -128 -13 -19 -44 -55 -69 -80
-31 -30 -46 -52 -46 -70 0 -24 1 -24 28 10 15 19 36 44 47 56 11 11 36 42 55
68 46 64 89 110 97 103 7 -7 -64 -130 -97 -167 -12 -14 -31 -36 -43 -50 -12
-14 -34 -44 -49 -67 -15 -22 -38 -52 -52 -66 -29 -29 -60 -86 -51 -95 8 -8 89
78 108 114 16 30 77 94 77 80 0 -4 -20 -32 -45 -63 -25 -30 -45 -59 -45 -64 0
-4 -19 -32 -43 -61 -73 -91 -99 -136 -108 -185 -5 -25 -16 -54 -24 -63 -13
-14 -15 -111 -15 -736 l0 -719 41 80 c22 43 45 85 51 92 13 16 16 22 133 249
49 96 93 174 97 174 4 0 8 5 8 12 0 6 19 43 43 82 24 39 56 96 72 126 15 30
33 62 40 70 7 8 35 58 62 111 27 52 58 108 70 125 11 16 32 52 47 79 28 54 48
88 87 150 13 22 36 62 49 88 14 27 35 66 46 88 13 23 20 52 18 70 -2 18 2 37
11 45 12 12 12 19 2 35 -8 14 -9 24 -1 36 17 28 32 26 39 -5 4 -18 14 -32 27
-35 26 -7 14 -27 -17 -27 -13 0 -26 -4 -29 -9 -10 -16 6 -19 31 -6 15 8 31 11
37 7 6 -4 1 -8 -11 -10 -13 -2 -23 -7 -23 -12 0 -5 -3 -16 -6 -24 -5 -12 -2
-15 10 -10 11 4 16 0 16 -14 0 -12 -4 -24 -10 -27 -5 -3 -10 -15 -10 -25 0
-11 -6 -34 -14 -52 -8 -18 -20 -52 -27 -75 -6 -23 -16 -40 -20 -37 -5 3 -9 -1
-10 -8 -2 -28 -7 -54 -14 -70 -4 -10 -3 -18 1 -18 14 1 40 41 55 85 8 22 18
44 24 48 6 6 6 10 -3 14 -9 4 -7 14 10 41 12 20 21 46 20 59 -1 13 2 23 7 23
4 0 7 -17 6 -37 -2 -37 -2 -37 8 -10 10 24 27 38 27 21 0 -6 -20 -54 -42 -101
-6 -11 -7 -26 -4 -32 4 -5 -2 -15 -13 -21 -11 -6 -25 -28 -31 -50 -6 -23 -15
-38 -20 -35 -6 4 -10 -5 -10 -19 0 -14 -5 -28 -12 -32 -8 -5 -9 0 -6 14 4 12
3 22 -2 22 -11 0 -70 -68 -70 -80 0 -6 -16 -30 -35 -56 -19 -25 -35 -55 -35
-67 0 -12 -9 -35 -20 -52 -22 -33 -26 -55 -10 -55 12 0 60 75 60 94 0 30 67
129 82 120 4 -3 -2 -20 -15 -37 -13 -18 -34 -58 -46 -89 -13 -32 -29 -62 -37
-69 -8 -6 -14 -18 -14 -25 0 -7 -14 -43 -30 -79 -32 -69 -36 -85 -21 -85 10 0
9 -26 -2 -36 -4 -4 -7 -19 -7 -33 0 -16 -3 -21 -8 -14 -4 7 -13 9 -21 4 -9 -6
-7 -10 8 -14 12 -3 21 -13 21 -22 0 -9 -3 -14 -8 -11 -4 2 -12 -7 -19 -20 -6
-13 -7 -22 -2 -18 5 3 9 1 9 -4 0 -6 -6 -12 -14 -15 -9 -4 -12 -14 -9 -26 4
-16 1 -19 -15 -14 -16 4 -26 -4 -46 -36 -14 -22 -26 -44 -26 -48 -1 -13 -50
-69 -50 -58 0 6 5 16 12 23 7 7 9 12 5 12 -10 0 51 115 74 139 11 11 19 23 19
26 0 4 7 13 15 21 22 23 18 35 -7 25 -27 -10 -137 -158 -138 -185 0 -19 -55
-99 -87 -127 -10 -9 -26 -29 -35 -45 -10 -16 -25 -40 -35 -54 -17 -23 -17 -24
0 -17 16 6 17 2 11 -31 -3 -20 -14 -48 -23 -61 -9 -13 -25 -40 -37 -60 -12
-21 -27 -35 -37 -33 -9 1 -19 -7 -23 -20 -3 -12 -13 -28 -20 -36 -21 -20 -17
-34 5 -22 17 8 19 7 16 -9 -4 -22 -34 -72 -50 -83 -6 -5 -3 -8 7 -8 15 0 15
-5 -6 -47 -12 -27 -28 -59 -34 -73 -11 -23 -12 -24 -6 -2 5 21 4 23 -15 13
-42 -23 -69 -91 -35 -91 8 0 12 5 9 10 -8 14 4 52 15 45 11 -7 -1 -46 -31
-107 -22 -46 -47 -67 -36 -31 17 55 19 63 9 63 -15 0 -25 -69 -12 -85 7 -9 8
-15 1 -19 -7 -5 -10 -184 -11 -521 l0 -515 89 0 88 0 52 132 c28 73 56 140 61
148 15 25 50 102 50 112 0 5 28 69 63 141 35 73 110 242 168 375 57 134 111
247 119 252 8 4 45 10 81 14 l66 6 3 -127 c2 -71 3 -154 4 -185 1 -37 5 -58
12 -58 8 0 11 -15 10 -40 -1 -25 5 -53 16 -70 12 -21 14 -30 5 -30 -7 0 -6 -4
4 -10 27 -16 144 -22 189 -10 26 7 45 8 49 2 9 -13 139 3 201 25 39 13 55 25
62 44 6 19 19 29 40 33 36 7 68 32 68 53 0 7 -3 12 -7 12 -23 -4 -23 3 -2 24
32 29 51 91 38 124 -5 14 -7 34 -4 44 4 10 -1 21 -10 26 -13 8 -15 24 -13 84
l3 74 77 1 c263 3 627 23 1063 59 99 8 236 17 305 20 69 4 145 8 170 10 25 2
93 7 151 10 106 7 106 7 112 -16 2 -13 16 -69 30 -124 36 -140 69 -308 76
-385 7 -75 36 -125 85 -145 20 -9 32 -21 33 -34 1 -12 -2 -21 -7 -21 -5 0 -87
-7 -182 -15 -95 -8 -263 -22 -373 -30 -110 -9 -222 -18 -250 -20 -27 -2 -95
-7 -150 -10 -55 -4 -116 -8 -135 -10 -19 -2 -114 -8 -210 -14 -96 -6 -233 -15
-305 -21 -71 -5 -170 -12 -218 -14 -49 -2 -90 -6 -92 -8 -2 -2 -15 -53 -29
-113 -13 -61 -36 -156 -49 -212 l-25 -103 49 0 c47 0 48 1 58 37 6 21 11 52
11 69 0 38 27 106 46 117 8 4 14 15 14 22 0 8 5 15 11 15 8 0 8 5 -1 15 -10
12 -10 15 4 15 9 0 16 -6 16 -12 1 -8 6 -6 14 5 7 9 18 17 23 17 6 0 16 6 22
14 20 24 253 43 287 24 32 -19 62 -16 83 6 21 22 30 23 137 24 63 1 119 4 123
6 4 3 52 7 107 10 54 3 115 10 134 14 40 9 73 5 65 -8 -3 -5 -12 -7 -20 -3
-18 6 -19 -6 -1 -29 12 -16 18 -17 87 -2 42 9 93 13 117 10 40 -5 43 -4 37 14
-6 19 -2 20 94 20 74 0 101 -3 101 -12 0 -9 2 -10 8 -2 12 19 151 17 179 -2
17 -11 42 -15 79 -12 52 3 54 2 54 -21 0 -24 1 -24 14 -5 9 11 10 21 5 25 -6
3 -3 11 6 19 8 7 15 20 15 29 0 9 3 12 8 6 4 -5 16 -15 27 -21 11 -6 27 -29
35 -51 l15 -41 25 27 c14 14 34 32 45 39 18 12 17 12 -13 8 -32 -6 -33 -5 -17
16 17 25 20 58 5 58 -5 0 -10 -6 -10 -12 -1 -8 -6 -6 -14 4 -15 20 -26 14 -26
-14 0 -22 -28 -24 -36 -3 -8 19 35 72 65 80 20 5 22 8 10 16 -9 6 9 7 51 3 90
-8 102 -22 106 -119 1 -43 5 -79 8 -82 10 -11 46 10 46 27 0 11 10 20 25 24
14 4 25 13 25 21 0 8 5 15 10 15 6 0 10 -11 10 -24 0 -17 -7 -26 -26 -30 -19
-5 -24 -11 -19 -25 3 -11 1 -22 -5 -26 -12 -8 -14 -45 -1 -45 5 0 12 7 15 16
10 27 27 4 23 -32 -4 -42 -27 -71 -27 -35 0 20 -2 21 -15 11 -10 -8 -15 -9
-15 -2 0 6 -7 9 -15 6 -12 -5 -12 -8 0 -20 7 -8 18 -14 24 -14 14 0 14 -6 1
-30 -7 -13 -6 -19 6 -24 9 -3 18 1 22 12 4 9 13 18 21 20 11 2 13 -8 9 -48 -3
-28 -1 -53 3 -56 5 -3 9 -21 9 -40 l0 -34 131 0 c121 0 131 1 125 18 -6 16 -5
16 8 0 17 -22 52 -23 60 -2 4 12 1 14 -14 9 -16 -5 -20 -2 -20 14 0 12 -5 21
-11 21 -6 0 -8 12 -6 29 3 17 0 32 -5 33 -6 2 -3 11 6 21 17 17 16 19 -14 21
-22 1 -27 94 -6 102 19 7 21 31 4 37 -8 2 2 13 22 25 19 12 29 23 23 23 -7 1
-17 3 -23 4 -5 1 -20 3 -32 5 -13 1 -17 4 -10 7 6 2 12 9 12 14 0 5 13 23 30
39 16 16 30 40 30 52 0 22 -1 22 -25 -6 -29 -34 -30 -32 -10 25 21 57 5 71
-29 26 -28 -37 -74 -72 -83 -64 -2 3 4 18 13 33 14 20 15 29 6 32 -6 2 -12 10
-12 18 0 14 10 18 41 15 12 -1 22 15 36 57 19 58 19 58 -2 74 -20 16 -19 16 7
11 34 -6 45 13 52 96 6 65 22 90 59 91 17 0 21 -16 18 -80 0 -19 3 -16 12 13
l12 37 12 -25 c9 -20 8 -25 -3 -25 -8 0 -14 -7 -14 -15 0 -8 9 -15 19 -15 10
0 22 -7 25 -16 3 -8 14 -14 23 -12 10 1 24 -1 31 -5 7 -5 12 -4 12 2 0 6 -5
11 -11 11 -8 0 -10 18 -6 58 5 50 4 59 -13 69 -14 10 -20 10 -23 0 -3 -7 -6
-4 -6 6 -1 9 -6 17 -12 17 -5 0 -8 -4 -4 -9 3 -6 -4 -15 -15 -21 -11 -6 -20
-7 -20 -2 0 20 30 79 46 93 33 27 45 78 49 203 2 67 6 143 10 169 8 55 -8 50
265 67 96 5 274 17 395 25 121 8 333 21 470 30 138 8 340 21 450 29 218 16
301 22 445 31 52 3 130 8 174 11 l78 5 -4 -112 c-4 -102 -6 -114 -26 -127 -18
-12 -20 -17 -10 -36 6 -11 19 -27 30 -34 10 -7 18 -25 18 -39 0 -20 4 -24 19
-20 14 3 21 -2 25 -18 8 -31 123 -87 183 -89 31 -1 42 3 38 12 -7 20 10 14 35
-13 21 -22 29 -24 84 -20 43 4 55 3 41 -4 -18 -9 -18 -10 7 -10 15 -1 31 5 35
12 4 6 16 18 26 26 15 12 20 12 26 2 5 -7 20 -14 35 -15 19 -3 26 1 26 15 0 9
8 31 17 48 17 29 17 32 0 60 -15 26 -17 48 -13 153 3 68 8 155 12 194 l7 71
116 6 c131 8 338 21 546 37 288 21 466 31 670 40 230 10 508 28 568 36 l37 6
0 748 c0 589 -3 749 -12 753 -10 4 -10 6 0 6 8 1 12 22 12 70 l0 69 -40 7
c-21 4 -44 4 -50 0 -5 -3 -18 -1 -27 4 -14 8 -1 10 50 11 49 0 67 4 67 13 0
10 -19 13 -82 10 -58 -2 -78 0 -68 7 8 5 41 10 73 10 34 0 57 4 57 11 0 11
-78 5 -155 -12 -49 -10 -161 -11 -195 -1 -21 6 -17 8 25 13 28 4 12 4 -35 2
-47 -3 -112 -5 -145 -4 -42 1 -56 -2 -45 -8 25 -17 5 -22 -51 -12 l-54 9 45 2
c38 2 41 3 20 10 -25 8 -25 8 5 11 17 1 39 4 50 5 11 1 49 3 85 4 l65 3 -45 9
c-25 5 -58 9 -75 8 -16 0 -41 3 -55 7 -20 5 -15 8 30 14 30 4 78 7 105 6 l50
0 -55 -8 c-38 -5 -21 -6 54 -3 60 2 141 4 180 5 57 0 66 2 47 10 -14 5 -38 7
-54 3 -21 -4 -27 -3 -22 5 4 8 -1 10 -19 6 -14 -3 -36 -7 -49 -10 -27 -5 -49
6 -39 21 10 16 186 26 200 12 9 -9 15 -9 24 0 7 7 24 12 39 12 14 0 41 3 58 6
l31 6 0 549 0 549 -42 0 c-24 0 -50 4 -58 10 -8 5 -19 5 -25 1 -17 -14 -155
-21 -453 -23 -196 -1 -281 -5 -279 -12 2 -6 19 -13 38 -16 l34 -6 -35 -6 c-19
-3 -37 -2 -40 2 -3 5 -21 13 -40 18 -25 7 -29 10 -12 11 12 1 22 5 22 10 0 5
-53 7 -117 5 -65 -2 -126 -4 -136 -4 -10 0 -15 -4 -12 -10 3 -5 27 -10 52 -10
26 0 43 -3 39 -7 -4 -4 -100 -8 -214 -9 -114 -1 -225 -4 -247 -7 -26 -4 -31
-4 -15 1 23 8 22 9 -15 15 -22 4 -71 7 -110 7 -38 0 -76 4 -83 9 -7 4 68 10
172 14 240 7 285 26 64 27 -93 0 -159 4 -163 10 -4 6 16 10 52 11 45 0 53 2
35 9 -30 12 -109 1 -128 -18 -8 -8 -18 -11 -22 -7 -4 4 3 15 16 26 l23 18 -25
7 c-14 3 -26 12 -26 20 0 11 29 14 148 15 81 1 191 2 244 3 67 0 101 -3 110
-12 10 -10 10 -15 -2 -22 -9 -5 3 -6 31 -3 61 8 70 26 16 34 -37 6 -34 6 21 6
34 0 62 -4 62 -8 0 -5 8 -9 18 -9 13 0 14 2 4 9 -8 4 34 11 100 14 141 9 233
9 241 1 7 -8 107 -13 103 -5 -4 5 470 6 504 0 8 -1 26 -1 40 0 23 2 24 3 5 12
-15 7 -11 8 17 4 20 -3 48 -3 62 1 l26 6 0 1925 c0 1701 -2 1924 -15 1919 -9
-3 -15 1 -15 10 0 10 6 14 15 10 13 -5 15 34 15 314 l0 320 -1120 0 c-991 0
-1119 -2 -1114 -15z m271 -200 c0 -10 -6 -14 -14 -10 -8 3 -17 5 -19 5 -3 0
-2 5 1 10 10 16 32 12 32 -5z m1258 -25 c3 -5 1 -10 -4 -10 -6 0 -11 5 -11 10
0 6 2 10 4 10 3 0 8 -4 11 -10z m-25 -20 c0 -5 -4 -10 -10 -10 -5 0 -10 5 -10
10 0 6 5 10 10 10 6 0 10 -4 10 -10z m40 -33 c-1 -12 -11 -34 -23 -48 -18 -22
-26 -25 -46 -18 -15 6 -21 14 -17 25 3 9 6 20 6 25 0 5 6 9 13 9 8 0 22 9 32
20 21 23 35 18 35 -13z m90 26 c0 -5 -4 -14 -9 -22 -6 -9 -4 -19 4 -27 7 -8
11 -23 8 -35 -4 -13 -2 -20 3 -16 5 3 10 -2 10 -11 1 -9 5 -26 9 -37 l8 -20
-17 20 -16 20 7 -20 c6 -18 5 -19 -11 -5 -11 8 -14 16 -7 18 21 7 12 32 -11
29 -18 -2 -23 3 -23 25 -1 15 -4 30 -7 33 -4 4 3 18 15 31 20 24 37 31 37 17z
m-1314 -76 c5 -5 -30 -47 -40 -47 -3 0 -7 8 -9 18 -3 11 -5 7 -6 -10 0 -15 -6
-39 -11 -54 -8 -21 -13 -25 -23 -15 -9 9 -16 6 -29 -11 l-18 -23 0 28 c0 32
28 87 45 87 5 0 3 5 -5 10 -12 7 -11 10 7 17 24 9 80 9 89 0z m1374 -16 c14
-26 13 -28 -10 -34 -13 -3 -20 0 -20 8 0 7 -3 20 -6 29 -9 23 23 20 36 -3z
m40 7 c0 -4 -7 -8 -15 -8 -8 0 -15 4 -15 8 0 5 7 9 15 9 8 0 15 -4 15 -9z
m-875 -8 c3 -5 1 -10 -4 -10 -6 0 -11 5 -11 10 0 6 2 10 4 10 3 0 8 -4 11 -10z
m711 -19 c7 -13 16 -27 22 -33 15 -15 3 -38 -20 -38 -10 0 -16 5 -13 10 4 6
11 7 17 4 6 -4 9 -1 6 7 -3 8 -15 13 -26 11 -15 -2 -22 2 -22 12 0 9 5 16 10
16 6 0 10 7 10 15 0 9 -6 12 -17 8 -11 -4 -14 -3 -9 6 11 17 29 9 42 -18z
m-1216 9 c0 -5 -4 -10 -10 -10 -5 0 -10 -6 -10 -14 0 -7 -7 -20 -17 -27 -17
-15 -16 -12 6 34 14 27 31 36 31 17z m-194 -99 c-4 -6 -16 -11 -26 -11 -10 0
-22 -4 -25 -10 -3 -5 3 -10 14 -10 11 0 23 5 26 10 3 6 11 10 17 10 6 0 5 -6
-3 -16 -10 -13 -10 -17 2 -25 8 -5 11 -9 7 -9 -3 0 -13 -3 -22 -6 -11 -4 -16
-1 -16 10 0 9 -3 15 -7 15 -34 -6 -51 25 -27 48 13 14 17 14 24 2 7 -11 10
-10 16 4 4 12 10 15 16 9 6 -6 7 -15 4 -21z m134 9 c0 -5 -5 -10 -11 -10 -5 0
-7 5 -4 10 3 6 8 10 11 10 2 0 4 -4 4 -10z m1353 -6 c13 -5 13 -8 -4 -25 -10
-10 -26 -19 -35 -19 -15 0 -44 23 -44 34 0 11 36 6 49 -6 7 -7 12 -8 11 -3 -5
25 -1 28 23 19z m-1377 -31 c-4 -9 -1 -22 6 -30 30 -36 16 -74 -16 -44 l-23
21 -19 -22 c-10 -12 -13 -18 -6 -14 6 4 12 3 12 -2 0 -14 -28 -23 -35 -12 -4
6 -17 10 -30 10 -18 0 -22 4 -18 19 6 24 43 36 43 14 0 -23 24 -9 30 18 6 29
40 70 52 62 5 -3 7 -12 4 -20z m1258 5 c9 -34 8 -37 -11 -33 -10 2 -21 4 -25
4 -13 2 -9 39 5 44 21 9 25 8 31 -15z m218 -4 c-2 -14 -9 -21 -18 -17 -24 9
-17 40 9 40 9 0 12 -9 9 -23z m-57 -42 c-6 -24 -8 -25 -17 -9 -5 10 -7 30 -3
45 6 24 8 25 17 9 5 -10 7 -30 3 -45z m-1615 28 c0 -11 -4 -20 -9 -20 -5 0 -7
9 -4 20 3 11 7 20 9 20 2 0 4 -9 4 -20z m1072 -3 c3 -18 0 -23 -16 -25 -11 0
-22 -6 -24 -12 -2 -5 -15 -10 -28 -10 -13 0 -24 -6 -24 -12 0 -7 -6 -4 -12 6
-14 25 16 49 52 41 17 -4 21 -3 11 4 -11 7 -10 11 5 20 27 15 31 14 36 -12z
m435 -13 c2 -5 -6 -10 -17 -10 -20 0 -25 7 -13 20 9 8 26 3 30 -10z m146 -28
c4 -10 1 -13 -8 -9 -8 3 -12 9 -9 14 7 12 11 11 17 -5z m-1670 -106 c-8 -9
-21 24 -15 39 5 12 8 10 12 -9 4 -14 5 -27 3 -30z m427 -19 c0 -5 -8 -12 -17
-14 -14 -4 -12 -5 5 -6 26 -1 31 -31 5 -31 -15 0 -16 2 -3 10 17 11 10 13 -14
4 -9 -3 -13 -10 -10 -15 3 -5 0 -9 -5 -9 -6 0 -11 -4 -11 -10 0 -5 7 -10 15
-10 8 0 15 -4 15 -10 0 -5 -6 -10 -14 -10 -19 0 -28 -14 -20 -34 6 -15 7 -15
19 0 6 9 17 14 23 10 17 -10 15 -26 -4 -26 -12 0 -14 -3 -6 -13 9 -10 4 -12
-25 -9 -22 3 -38 0 -43 -9 -5 -7 -15 -14 -24 -15 -16 -2 -12 19 8 45 8 11 8
13 -1 7 -8 -4 -13 -2 -13 6 -1 8 -6 6 -15 -6 -14 -18 -15 -18 -15 -2 0 9 7 24
15 33 9 8 13 18 10 21 -3 4 -10 0 -15 -8 -8 -12 -10 -10 -10 9 0 17 4 22 16
17 8 -3 25 3 37 15 15 14 17 18 6 14 -24 -9 -32 10 -13 29 18 19 34 21 34 4 0
-8 6 -6 17 5 18 18 53 23 53 8z m1148 0 c9 -6 11 -19 7 -44 l-7 -36 -27 17
-26 16 19 -22 c11 -12 17 -22 15 -23 -2 0 -13 -2 -24 -4 -24 -5 -45 12 -45 36
0 13 5 17 16 12 14 -5 15 -3 5 15 -6 12 -7 23 -2 26 5 4 12 0 15 -6 4 -10 9
-8 18 5 15 19 18 20 36 8z m564 -15 c6 4 9 1 7 -5 -7 -19 -24 -14 -26 6 -2 10
0 12 3 5 3 -6 10 -9 16 -6z m-465 -51 c-10 -19 -12 -18 -17 10 -8 39 -2 51 15
28 10 -13 10 -23 2 -38z m-1407 -40 c0 -28 -21 -33 -41 -9 -10 13 -10 17 2 25
25 15 39 10 39 -16z m1388 11 c13 -4 22 -3 22 3 0 15 27 2 34 -16 5 -12 0 -14
-24 -11 -16 3 -30 1 -30 -4 0 -4 9 -8 20 -8 11 0 20 -4 20 -9 0 -5 -11 -8 -25
-7 -16 0 -25 7 -25 17 0 9 -10 24 -22 33 -22 17 -19 17 30 2z m92 -6 c0 -5 -4
-10 -10 -10 -5 0 -10 5 -10 10 0 6 5 10 10 10 6 0 10 -4 10 -10z m-1618 -28
c-7 -2 -12 -10 -12 -18 0 -8 -4 -14 -10 -14 -5 0 -10 6 -10 13 0 19 21 37 34
30 6 -4 6 -8 -2 -11z m1618 4 c0 -3 -4 -8 -10 -11 -5 -3 -10 -1 -10 4 0 6 5
11 10 11 6 0 10 -2 10 -4z m-135 -16 c3 -5 1 -10 -4 -10 -6 0 -11 5 -11 10 0
6 2 10 4 10 3 0 8 -4 11 -10z m105 -30 c0 -24 -6 -25 -26 -6 -11 11 -11 16 -1
19 22 10 27 7 27 -13z m-123 -62 c-3 -8 -6 -5 -6 6 -1 11 2 17 5 13 3 -3 4
-12 1 -19z m-2563 -4 c27 -11 18 -33 -16 -38 -44 -7 -68 -5 -68 6 0 4 0 11 0
16 0 4 9 8 20 8 11 1 23 4 27 8 8 8 17 8 37 0z m-98 -35 c3 -6 1 -16 -5 -22
-21 -21 -12 -47 22 -61 17 -8 26 -15 20 -15 -18 -1 -16 -48 2 -55 8 -3 15 -15
15 -26 0 -17 -6 -20 -38 -20 -26 0 -45 7 -57 20 -14 15 -21 17 -31 9 -17 -14
-44 -4 -44 16 0 8 -4 15 -10 15 -5 0 -10 -6 -10 -13 0 -23 -54 -43 -149 -54
-32 -4 -50 -13 -71 -36 l-27 -31 -12 22 -12 23 -29 -21 c-26 -19 -60 -27 -60
-14 0 16 23 45 33 41 7 -2 22 -1 34 4 20 7 21 12 13 34 -15 39 -13 45 12 36
13 -4 26 -19 29 -32 6 -21 7 -21 8 -4 1 25 38 58 57 51 8 -3 14 -2 14 3 0 4
25 6 55 3 51 -4 55 -3 64 21 8 20 17 25 44 25 43 0 80 19 71 35 -4 7 -4 9 1 5
12 -11 35 11 35 33 0 21 15 25 26 8z m1164 -3 c0 -11 -19 -15 -25 -6 -3 5 1
10 9 10 9 0 16 -2 16 -4z m-1650 -32 c0 -8 -4 -14 -10 -14 -5 0 -10 9 -10 21
0 11 5 17 10 14 6 -3 10 -13 10 -21z m1400 11 c0 -13 -4 -14 -20 -5 -11 6 -20
13 -20 15 0 3 9 5 20 5 11 0 20 -7 20 -15z m-1610 -29 c-7 -7 -13 -7 -20 0 -6
6 -3 10 10 10 13 0 16 -4 10 -10z m463 8 c11 -11 -5 -33 -32 -47 -22 -11 -31
-11 -45 -2 -15 11 -14 13 9 19 14 4 28 13 31 21 6 15 26 20 37 9z m317 -59 c0
-8 -4 -15 -9 -15 -5 0 -11 7 -15 15 -3 9 0 15 9 15 8 0 15 -7 15 -15z m1910
-24 c0 -5 -7 -14 -15 -21 -16 -14 -18 -10 -9 14 6 17 24 22 24 7z m-1090 -66
c0 -8 -7 -15 -15 -15 -16 0 -20 12 -8 23 11 12 23 8 23 -8z m1235 5 c-28 -12
-37 -12 -30 0 3 6 16 10 28 9 21 0 21 -1 2 -9z m-1075 -4 c0 -3 -4 -8 -10 -11
-5 -3 -10 -1 -10 4 0 6 5 11 10 11 6 0 10 -2 10 -4z m-960 -18 c0 -4 -8 -8
-17 -9 -15 0 -15 -2 2 -9 11 -5 14 -9 7 -9 -7 -1 -10 -6 -7 -11 4 -6 11 -7 17
-4 6 4 8 2 5 -3 -4 -6 3 -13 14 -16 12 -3 18 -10 14 -17 -4 -7 -11 -8 -18 -2
-7 5 -52 8 -102 6 -49 -2 -98 -1 -107 2 -28 8 -21 24 10 24 16 0 39 9 52 20
13 11 36 20 51 20 15 0 30 4 33 8 2 4 14 8 25 8 12 0 21 -4 21 -8z m2065 2
c-3 -5 2 -10 12 -10 17 -1 17 -1 0 -11 -13 -8 -22 -7 -32 1 -17 14 -11 30 11
30 8 0 12 -4 9 -10z m-2948 -32 c-3 -7 -5 -2 -5 12 0 14 2 19 5 13 2 -7 2 -19
0 -25z m250 0 c-3 -8 -6 -5 -6 6 -1 11 2 17 5 13 3 -3 4 -12 1 -19z m-147 -25
c0 -10 -6 -12 -19 -8 -11 3 -22 1 -26 -5 -3 -5 -11 -10 -16 -10 -5 0 0 13 12
30 17 23 26 27 36 19 7 -6 13 -18 13 -26z m2745 28 c3 -5 1 -12 -5 -16 -5 -3
-10 1 -10 9 0 18 6 21 15 7z m-1729 -12 c3 -6 2 -15 -4 -21 -20 -20 12 -39 46
-27 24 8 36 7 56 -6 23 -16 24 -17 8 -37 -44 -55 -63 -67 -87 -56 -19 8 -29 6
-53 -11 -22 -15 -32 -18 -35 -9 -2 7 -2 1 0 -14 5 -33 -7 -36 -25 -8 -13 21
-8 36 30 88 9 13 20 43 24 68 6 42 24 58 40 33z m-556 -9 c0 -5 -2 -10 -4 -10
-3 0 -8 5 -11 10 -3 6 -1 10 4 10 6 0 11 -4 11 -10z m-290 -45 c0 -14 -6 -25
-12 -26 -7 0 -28 -2 -45 -3 -18 -2 -33 0 -33 5 0 18 41 49 65 49 20 0 25 -5
25 -25z m203 -12 c8 -7 -11 -33 -24 -33 -5 0 -9 9 -9 20 0 19 20 27 33 13z
m51 -29 c4 -10 14 -14 26 -11 21 5 27 -7 10 -18 -12 -8 -60 21 -60 35 0 16 17
11 24 -6z m1050 -11 c-9 -36 -10 -37 -31 -29 -16 7 -16 9 -2 19 9 7 14 18 12
25 -3 6 3 12 11 12 13 0 15 -6 10 -27z m-254 7 c8 -5 11 -12 8 -16 -10 -9 -38
3 -38 16 0 12 10 13 30 0z m-430 -10 c-20 -13 -33 -13 -25 0 3 6 14 10 23 10
15 0 15 -2 2 -10z m717 -12 c-3 -8 -6 -5 -6 6 -1 11 2 17 5 13 3 -3 4 -12 1
-19z m-1567 -9 c0 -16 -4 -19 -17 -14 -10 4 -30 7 -45 6 -27 -1 -36 8 -21 22
3 4 24 7 45 7 32 0 38 -3 38 -21z m785 11 c18 -8 18 -9 -5 -9 -14 0 -34 4 -45
9 -18 8 -18 9 5 9 14 0 34 -4 45 -9z m-1020 -16 c0 -5 -11 -9 -25 -9 -38 0
-50 -13 -50 -53 0 -26 -3 -33 -9 -23 -15 23 -41 -5 -41 -44 0 -27 -5 -34 -26
-39 -34 -9 -52 7 -34 28 7 9 10 23 6 31 -4 11 0 16 12 14 30 -3 42 1 42 12 0
7 -11 9 -27 6 -30 -6 -53 1 -53 14 0 5 20 9 45 9 25 0 45 4 45 9 0 4 12 20 26
35 20 19 35 25 58 23 17 -2 31 -7 31 -13z m898 9 c-13 -2 -33 -2 -45 0 -13 2
-3 4 22 4 25 0 35 -2 23 -4z m244 -4 c-14 -8 -22 -8 -30 0 -8 8 -3 11 19 11
25 -1 27 -2 11 -11z m298 -19 c3 -5 -1 -10 -9 -10 -9 0 -16 5 -16 10 0 6 4 10
9 10 6 0 13 -4 16 -10z m-1655 -31 c0 -31 -9 -36 -28 -17 -9 9 -12 9 -13 -2 0
-8 -5 -4 -10 9 -11 27 -3 36 31 38 16 1 20 -4 20 -28z m1178 -36 c-4 -32 6
-45 15 -20 2 6 5 -5 5 -25 0 -21 -6 -42 -14 -49 -8 -6 -14 -8 -14 -5 0 4 -6 4
-12 -1 -7 -4 -15 -8 -18 -9 -34 -6 -60 -18 -60 -28 0 -8 -2 -8 -8 1 -4 6 -21
13 -37 15 -17 1 -29 6 -27 11 1 4 2 25 2 47 0 30 3 38 14 34 8 -3 17 -1 21 5
3 6 11 11 16 11 6 0 7 -4 4 -10 -3 -5 1 -10 9 -10 12 0 16 10 16 34 0 19 5 38
10 41 6 4 10 -10 10 -36 0 -37 2 -40 16 -28 13 10 17 10 25 -2 7 -10 9 2 7 39
-3 45 -1 50 10 35 7 -10 12 -33 10 -50z m512 57 c0 -5 -5 -10 -11 -10 -5 0 -7
5 -4 10 3 6 8 10 11 10 2 0 4 -4 4 -10z m-1600 -4 c0 -11 -19 -15 -25 -6 -3 5
1 10 9 10 9 0 16 -2 16 -4z m1190 -30 c0 -13 -7 -26 -15 -30 -16 -6 -20 10 -9
38 9 24 24 19 24 -8z m375 5 c0 -7 -10 -20 -22 -28 -22 -15 -23 -14 -23 16 0
28 3 32 23 29 12 -2 22 -9 22 -17z m-1135 -30 c0 -17 -27 -37 -37 -27 -6 6 20
46 29 46 5 0 8 -9 8 -19z m375 -29 c-3 -3 -5 0 -5 8 0 10 -3 10 -15 0 -23 -19
-31 -3 -10 21 l19 20 8 -22 c5 -12 6 -24 3 -27z m185 38 c0 -5 -2 -10 -4 -10
-3 0 -8 5 -11 10 -3 6 -1 10 4 10 6 0 11 -4 11 -10z m-775 -11 c8 -11 -25 -40
-37 -33 -10 6 9 44 22 44 5 0 12 -5 15 -11z m1010 -16 c-3 -48 -5 -53 -15 -53
-5 0 -10 9 -10 20 0 11 5 20 10 20 7 0 7 6 0 20 -8 16 -8 20 3 20 9 0 13 -10
12 -27z m-501 -18 c-4 -8 -11 -12 -16 -9 -6 4 -5 10 3 15 19 12 19 11 13 -6z
m-884 -5 c0 -5 -5 -10 -11 -10 -5 0 -7 5 -4 10 3 6 8 10 11 10 2 0 4 -4 4 -10z
m4420 6 c0 -11 -19 -15 -25 -6 -3 5 1 10 9 10 9 0 16 -2 16 -4z m-4376 -72
c22 -21 10 -36 -24 -32 -18 2 -38 -5 -52 -17 -40 -35 -87 -57 -108 -50 -16 5
-17 9 -8 25 14 22 87 60 116 60 11 0 22 7 26 15 7 20 30 19 50 -1z m4348 -26
c-7 -7 -12 -8 -12 -2 0 14 12 26 19 19 2 -3 -1 -11 -7 -17z m-4592 -108 c0 -5
-6 -10 -12 -10 -7 0 -23 -3 -35 -6 -13 -4 -23 -2 -23 4 0 6 12 13 28 15 15 2
30 5 35 6 4 0 7 -3 7 -9z m4635 -40 c3 -5 1 -10 -4 -10 -6 0 -11 5 -11 10 0 6
2 10 4 10 3 0 8 -4 11 -10z m-4527 -89 c10 -6 5 -10 -16 -14 -16 -3 -37 -13
-45 -22 -21 -21 -47 -19 -47 4 0 27 79 51 108 32z m52 -15 c0 -11 -19 -15 -25
-6 -3 5 1 10 9 10 9 0 16 -2 16 -4z m-184 -18 c3 -4 4 -14 1 -23 -5 -11 -22
-15 -72 -15 -63 0 -85 12 -45 25 11 3 20 9 20 13 0 9 87 9 96 0z m-191 -11
c16 -13 15 -14 -19 -20 -20 -3 -43 -13 -52 -21 -18 -19 -48 -21 -41 -3 2 6 12
11 21 11 9 -1 16 3 16 9 0 12 30 36 46 37 5 0 18 -6 29 -13z m-225 -9 c0 -11
-22 -10 -39 1 -10 7 -7 9 12 8 15 -1 27 -5 27 -9z m1963 5 c-7 -2 -19 -2 -25
0 -7 3 -2 5 12 5 14 0 19 -2 13 -5z m-1313 -7 c0 -3 -4 -8 -10 -11 -5 -3 -10
-1 -10 4 0 6 5 11 10 11 6 0 10 -2 10 -4z m1546 -26 c16 0 18 -9 5 -29 -8 -12
-12 -12 -26 2 -9 10 -21 15 -26 12 -5 -4 -9 -2 -9 3 0 15 13 23 28 17 7 -3 20
-5 28 -5z m-289 -16 c14 -13 14 -17 2 -25 -37 -23 -104 2 -77 29 17 17 57 15
75 -4z m201 -25 c-1 -16 -7 -25 -14 -22 -7 3 -10 11 -7 19 4 10 0 12 -11 8 -9
-3 -16 -2 -16 4 0 6 6 12 13 15 28 9 37 3 35 -24z m-293 -9 c-3 -5 -10 -10
-16 -10 -5 0 -9 5 -9 10 0 6 7 10 16 10 8 0 12 -4 9 -10z m-65 -9 c0 -12 -29
-35 -36 -28 -7 6 17 36 29 37 4 0 7 -4 7 -9z m-1295 -11 c3 -5 -3 -10 -14 -10
-12 0 -21 -5 -21 -11 0 -6 -9 -8 -22 -3 -29 8 -31 10 -23 23 8 14 72 14 80 1z
m1325 0 c0 -5 -4 -10 -10 -10 -5 0 -10 5 -10 10 0 6 5 10 10 10 6 0 10 -4 10
-10z m-90 -29 c0 -9 -33 -21 -57 -21 -25 0 -13 19 15 23 15 2 30 5 35 6 4 0 7
-3 7 -8z m-2199 -19 c31 -24 114 -52 154 -52 44 0 75 -25 75 -60 0 -16 5 -32
10 -35 6 -4 8 -15 5 -25 -7 -21 43 -79 62 -73 6 2 14 0 17 -5 3 -5 -19 -12
-48 -15 -30 -3 -76 -17 -102 -31 -53 -28 -75 -33 -71 -14 3 16 -37 26 -109 27
-69 1 -151 -33 -146 -61 1 -9 -5 -18 -13 -22 -9 -3 -13 -10 -10 -16 3 -5 1
-10 -4 -10 -6 0 -11 8 -11 19 0 12 -11 21 -32 28 -24 7 -32 14 -30 29 4 29 7
36 25 71 9 18 17 40 17 50 0 10 9 24 20 31 11 7 20 21 20 31 0 25 41 74 85
101 19 12 34 24 34 28 -4 28 19 29 52 4z m846 -54 c1 -24 -3 -38 -10 -38 -18
0 -39 39 -32 61 5 15 3 18 -12 13 -10 -3 -7 1 6 9 32 19 45 5 48 -45z m1873
58 c0 -3 -4 -8 -10 -11 -5 -3 -10 -1 -10 4 0 6 5 11 10 11 6 0 10 -2 10 -4z
m-1970 -16 c0 -5 -8 -10 -17 -10 -15 0 -16 2 -3 10 19 12 20 12 20 0z m370 0
c0 -5 -4 -10 -9 -10 -6 0 -13 5 -16 10 -3 6 1 10 9 10 9 0 16 -4 16 -10z
m1665 -13 c16 -4 14 -5 -7 -6 -27 -1 -43 11 -31 23 4 3 9 2 12 -3 3 -5 15 -11
26 -14z m-2155 -7 c0 -5 -8 -14 -17 -19 -10 -6 -14 -11 -9 -11 5 0 3 -7 -4
-15 -10 -12 -9 -15 5 -15 14 0 15 -3 6 -14 -22 -26 -131 -1 -131 31 0 17 19
17 26 -1 8 -21 48 -6 74 27 21 26 50 37 50 17z m-110 -20 c0 -5 -4 -10 -10
-10 -5 0 -10 5 -10 10 0 6 5 10 10 10 6 0 10 -4 10 -10z m368 -8 c2 -7 -3 -12
-12 -12 -9 0 -16 7 -16 16 0 17 22 14 28 -4z m1132 9 c0 -6 -4 -13 -10 -16 -5
-3 -10 1 -10 9 0 9 5 16 10 16 6 0 10 -4 10 -9z m606 -28 c-10 -10 -19 5 -10
18 6 11 8 11 12 0 2 -7 1 -15 -2 -18z m-1931 -3 c3 -5 -1 -10 -9 -10 -9 0 -16
5 -16 10 0 6 4 10 9 10 6 0 13 -4 16 -10z m582 -22 c15 -6 31 -11 36 -10 15 4
6 -10 -28 -42 -28 -27 -37 -31 -46 -20 -8 10 -8 14 0 14 6 0 11 7 11 15 0 8 5
15 11 15 20 0 3 24 -22 31 -14 4 -17 7 -7 8 9 1 29 -4 45 -11z m1550 6 c-3 -3
-12 -4 -19 -1 -8 3 -5 6 6 6 11 1 17 -2 13 -5z m-140 -20 c-3 -3 -12 -4 -19
-1 -8 3 -5 6 6 6 11 1 17 -2 13 -5z m-1537 -14 c0 -5 -9 -10 -21 -10 -11 0
-17 5 -14 10 3 6 13 10 21 10 8 0 14 -4 14 -10z m1257 4 c-3 -3 -12 -4 -19 -1
-8 3 -5 6 6 6 11 1 17 -2 13 -5z m-1842 -14 c4 -6 -7 -10 -27 -10 -25 0 -29 3
-18 10 19 13 37 13 45 0z m1802 4 c-3 -3 -12 -4 -19 -1 -8 3 -5 6 6 6 11 1 17
-2 13 -5z m-1332 -14 c-3 -5 -10 -10 -16 -10 -5 0 -9 5 -9 10 0 6 7 10 16 10
8 0 12 -4 9 -10z m80 -10 c3 -5 -1 -10 -9 -10 -9 0 -16 5 -16 10 0 6 4 10 9
10 6 0 13 -4 16 -10z m-613 -65 c3 -29 1 -35 -14 -35 -14 0 -18 8 -18 35 0 23
5 35 14 35 8 0 15 -14 18 -35z m1863 -32 c-26 -18 -34 -16 -28 6 3 13 11 17
25 13 20 -5 20 -6 3 -19z m92 21 c-3 -3 -12 -4 -19 -1 -8 3 -5 6 6 6 11 1 17
-2 13 -5z m-1683 -65 c-3 -5 -14 -9 -26 -9 -17 0 -18 3 -8 14 12 15 44 10 34
-5z m74 3 c2 -7 -3 -12 -12 -12 -9 0 -16 7 -16 16 0 17 22 14 28 -4z m515 -70
c-3 -12 -12 -22 -19 -22 -17 0 -18 12 -2 28 10 10 10 15 -2 22 -8 5 -17 7 -21
4 -4 -2 -5 6 -1 18 4 16 2 19 -8 13 -9 -6 -11 -4 -5 4 12 21 65 -40 58 -67z
m672 44 c11 -7 29 -16 40 -19 11 -3 -4 -3 -32 0 -36 4 -53 2 -53 -6 0 -6 5
-11 10 -11 6 0 10 -4 10 -9 0 -6 -8 -10 -17 -10 -10 0 -38 -3 -62 -7 -32 -5
-42 -4 -37 4 4 7 13 12 21 12 7 0 24 13 37 29 25 33 53 38 83 17z m-748 -73
c-16 -16 -17 -16 -17 3 0 11 3 24 7 27 4 4 11 3 17 -3 7 -7 5 -16 -7 -27z
m773 27 c0 -5 -4 -10 -10 -10 -5 0 -10 5 -10 10 0 6 5 10 10 10 6 0 10 -4 10
-10z m-2113 -36 c-3 -3 -12 -4 -19 -1 -8 3 -5 6 6 6 11 1 17 -2 13 -5z m1373
-18 c0 -2 -7 -6 -15 -10 -8 -3 -15 -1 -15 4 0 6 7 10 15 10 8 0 15 -2 15 -4z
m17 -52 c-3 -3 -12 -4 -19 -1 -8 3 -5 6 6 6 11 1 17 -2 13 -5z m-1293 -129 c8
-8 23 -15 33 -15 20 0 50 -16 43 -23 -3 -3 -31 -8 -62 -11 l-58 -7 0 35 c0 39
17 47 44 21z m141 -35 c-3 -5 -14 -10 -23 -9 -14 0 -13 2 3 9 27 11 27 11 20
0z m255 -90 c0 -5 -4 -10 -9 -10 -6 0 -13 5 -16 10 -3 6 1 10 9 10 9 0 16 -4
16 -10z m635 0 c3 -5 1 -10 -4 -10 -6 0 -11 5 -11 10 0 6 2 10 4 10 3 0 8 -4
11 -10z m-690 -19 c-4 -14 0 -23 14 -31 28 -15 76 -60 64 -60 -5 0 -20 9 -33
20 -13 11 -29 20 -37 20 -7 0 -13 4 -13 9 0 5 -15 16 -32 25 -28 13 -29 16
-11 16 12 0 25 5 28 10 11 18 27 11 20 -9z m794 -10 c7 -5 11 -13 7 -19 -8
-14 -68 -43 -74 -37 -3 3 1 5 8 5 9 0 5 9 -10 22 l-24 22 25 7 c35 10 52 10
68 0z m-149 -21 c0 -5 -9 -10 -21 -10 -11 0 -17 5 -14 10 3 6 13 10 21 10 8 0
14 -4 14 -10z m160 -30 c-8 -5 -22 -9 -30 -9 -10 0 -8 3 5 9 27 12 43 12 25 0z
m2860 -31 c0 -5 -7 -9 -15 -9 -15 0 -20 12 -9 23 8 8 24 -1 24 -14z m-3526
-56 c7 -7 61 -28 114 -44 19 -6 32 -13 29 -15 -2 -3 -26 3 -53 12 -27 9 -62
17 -79 18 -19 1 -31 8 -33 19 -3 17 9 23 22 10z m183 -69 c-3 -3 -12 -4 -19
-1 -8 3 -5 6 6 6 11 1 17 -2 13 -5z m653 2 c0 -2 -7 -7 -16 -10 -8 -3 -12 -2
-9 4 6 10 25 14 25 6z m-145 -36 c3 -5 2 -10 -4 -10 -5 0 -13 5 -16 10 -3 6
-2 10 4 10 5 0 13 -4 16 -10z m152 4 c-3 -3 -12 -4 -19 -1 -8 3 -5 6 6 6 11 1
17 -2 13 -5z m-1882 -34 c-3 -5 -10 -10 -16 -10 -5 0 -9 5 -9 10 0 6 7 10 16
10 8 0 12 -4 9 -10z m1802 4 c-3 -3 -12 -4 -19 -1 -8 3 -5 6 6 6 11 1 17 -2
13 -5z m-1817 -37 c0 -20 -69 -97 -87 -97 -12 0 -10 6 9 23 13 12 33 37 43 55
20 33 35 41 35 19z m1146 -44 c20 -27 16 -38 -6 -18 -20 18 -26 35 -14 35 4 0
13 -8 20 -17z m1004 3 c0 -3 -4 -8 -10 -11 -5 -3 -10 -1 -10 4 0 6 5 11 10 11
6 0 10 -2 10 -4z m-20 -30 c0 -3 -4 -8 -10 -11 -5 -3 -10 -1 -10 4 0 6 5 11
10 11 6 0 10 -2 10 -4z m-900 -46 c38 -33 37 -35 -9 -19 -17 6 -31 17 -31 24
0 7 -6 16 -12 18 -9 4 -8 6 2 6 8 0 31 -13 50 -29z m-1699 -137 c-12 -20 -14
-14 -5 12 4 9 9 14 11 11 3 -2 0 -13 -6 -23z m-724 -8 c-14 -15 -27 -10 -27
10 0 8 7 11 19 8 16 -4 17 -8 8 -18z m697 -57 c7 -5 5 -8 -6 -8 -10 0 -32 -9
-50 -20 -19 -12 -51 -20 -75 -20 -23 0 -45 -4 -48 -10 -9 -15 -55 -12 -55 4 0
9 17 15 55 18 43 4 62 11 83 31 16 15 33 27 39 27 6 0 17 7 24 17 13 15 14 14
18 -8 1 -13 8 -27 15 -31z m13 20 c-3 -8 -6 -5 -6 6 -1 11 2 17 5 13 3 -3 4
-12 1 -19z m-17 -48 c0 -5 -5 -10 -11 -10 -5 0 -7 5 -4 10 3 6 8 10 11 10 2 0
4 -4 4 -10z m-270 -24 c0 -3 -4 -8 -10 -11 -5 -3 -10 -1 -10 4 0 6 5 11 10 11
6 0 10 -2 10 -4z m-135 -67 c-4 -5 -14 -9 -25 -9 -23 0 -33 -25 -15 -40 7 -6
16 -23 20 -38 7 -28 61 -81 84 -82 7 0 11 -6 8 -14 -4 -10 3 -17 23 -21 20 -4
27 -11 23 -21 -4 -10 2 -14 21 -14 14 0 26 -4 26 -8 0 -5 -13 -7 -30 -4 -16 2
-30 8 -30 13 0 5 -7 9 -15 9 -23 0 -76 29 -97 54 -10 11 -23 39 -29 61 -6 22
-18 53 -26 70 -11 20 -12 30 -4 33 6 2 9 7 6 12 -3 4 3 6 14 3 10 -3 22 0 26
6 3 6 11 9 16 5 5 -3 7 -10 4 -15z m3252 -161 c-3 -8 -6 -5 -6 6 -1 11 2 17 5
13 3 -3 4 -12 1 -19z m-7 -42 c0 -28 -12 -46 -31 -46 -25 0 -35 26 -19 45 16
19 50 20 50 1z m-561 -31 c-31 -32 -45 -32 -17 0 12 14 26 25 31 25 5 0 -1
-11 -14 -25z m-2644 -4 c19 -12 19 -12 -5 -7 -14 3 -31 6 -37 6 -7 0 -13 4
-13 8 0 12 31 8 55 -7z m2687 -3 c-14 -14 -16 -38 -3 -38 5 0 11 9 14 20 3 12
14 20 26 20 12 0 21 4 21 9 0 11 77 6 113 -8 16 -6 33 -8 39 -5 6 4 8 -1 6
-11 -1 -10 -29 -38 -61 -63 l-57 -45 -67 12 c-66 12 -93 24 -93 42 0 5 9 9 19
9 29 0 34 17 8 24 -22 6 -22 6 7 32 27 24 52 26 28 2z m-2722 -38 c0 -16 -5
-30 -11 -30 -7 0 -18 -8 -25 -17 -12 -17 -13 -17 -14 -1 0 9 5 20 11 23 6 4 8
14 4 23 -5 14 9 31 28 32 4 0 7 -13 7 -30z m-173 -111 c24 -11 43 -25 43 -30
0 -6 -4 -8 -9 -4 -5 3 -12 -3 -15 -12 -7 -21 -50 -43 -83 -43 -13 0 -23 -6
-23 -15 0 -7 -6 -18 -14 -22 -8 -4 -17 -20 -21 -35 -5 -21 -2 -30 14 -40 12
-7 21 -16 21 -19 0 -10 -73 -53 -93 -55 -10 -1 -20 -4 -23 -7 -4 -3 -28 3 -55
14 -28 10 -61 19 -74 19 -24 0 -25 3 -25 60 l0 60 85 0 85 0 0 38 c0 36 3 38
68 73 37 20 69 37 71 38 3 0 24 -8 48 -20z m2943 -25 c9 -9 10 -14 3 -14 -7 0
-14 -12 -16 -27 -4 -26 -4 -26 -6 5 -1 22 -6 32 -17 32 -13 0 -15 -7 -11 -30
4 -16 2 -32 -3 -35 -6 -3 -10 1 -10 10 0 9 -4 13 -10 10 -5 -3 -10 -1 -10 4 0
6 5 11 10 11 6 0 10 5 10 12 0 6 -3 8 -7 5 -3 -4 -12 -2 -20 4 -10 9 -10 15
-2 25 13 16 67 8 89 -12z m57 -11 c-3 -10 -5 -4 -5 12 0 17 2 24 5 18 2 -7 2
-21 0 -30z m33 -67 c0 -8 7 -22 16 -30 14 -15 14 -16 0 -16 -9 0 -16 6 -16 14
0 8 -7 22 -16 30 -14 15 -14 16 0 16 9 0 16 -6 16 -14z m-3409 -18 c7 -13 4
-21 -13 -32 -38 -27 -58 -21 -58 18 0 31 2 34 31 32 17 -1 35 -9 40 -18z
m-101 -3 c0 -8 -4 -15 -10 -15 -5 0 -10 7 -10 15 0 8 5 15 10 15 6 0 10 -7 10
-15z m628 -40 c6 -6 -18 -45 -27 -45 -5 0 -11 8 -15 18 -3 9 -9 23 -12 31 -5
11 0 12 22 7 16 -4 30 -9 32 -11z m2817 -11 c11 -1 45 -3 76 -3 41 -1 58 -5
63 -16 9 -25 -14 -115 -30 -115 -8 0 -14 4 -14 9 0 8 -32 22 -55 25 -5 1 -13
6 -17 11 -5 6 -11 5 -16 -3 -9 -13 -23 -11 -79 15 -32 14 -43 36 -23 48 6 3
10 15 10 26 0 18 4 20 33 13 17 -4 41 -8 52 -10z m-2645 -20 c32 -13 40 -21
38 -38 -2 -14 -10 -21 -25 -21 -11 0 -25 -3 -29 -7 -18 -18 -41 -6 -57 30 -9
21 -17 42 -17 45 0 12 49 7 90 -9z m5004 0 c90 -15 146 -36 146 -54 0 -5 -10
-15 -22 -21 -22 -12 -22 -12 -3 -20 11 -4 14 -8 8 -8 -8 -1 -13 -14 -13 -32 0
-16 -4 -28 -9 -25 -4 3 -6 18 -3 32 3 19 1 25 -7 20 -7 -4 -19 -2 -27 5 -12
10 -13 9 -7 -7 6 -17 5 -17 -10 -5 -12 10 -17 10 -17 1 0 -8 -12 -10 -39 -5
-54 9 -62 -9 -61 -137 1 -69 -4 -116 -14 -143 l-15 -40 0 45 c-1 25 -6 63 -13
85 -7 22 -12 74 -12 115 -1 70 -3 75 -23 78 -25 4 -23 11 -28 -113 -1 -27 -5
-60 -9 -72 -4 -13 -4 -23 1 -23 5 0 9 -9 10 -20 2 -19 1 -19 -15 -3 -16 16
-18 12 -26 -55 -7 -60 -6 -75 7 -90 22 -24 11 -69 -18 -74 -21 -4 -22 -1 -23
55 -1 33 4 69 9 80 8 14 6 31 -8 65 -24 58 -21 161 3 141 11 -9 13 -21 8 -43
-9 -38 -7 -77 5 -89 16 -16 35 91 22 132 -6 20 -10 54 -8 76 1 29 -2 40 -13
40 -8 0 -18 -6 -21 -14 -4 -11 -8 -11 -21 3 -20 19 -54 21 -61 4 -3 -8 -6 -6
-6 4 -1 14 -28 38 -44 38 -6 0 -17 -102 -22 -198 -4 -73 -14 -110 -16 -61 l-1
24 -8 -25 c-5 -15 -6 3 -3 45 3 39 10 73 16 76 5 4 8 29 5 57 -3 28 -1 57 4
65 5 9 4 18 -2 22 -5 3 -10 10 -10 15 0 13 41 50 65 60 34 15 255 11 349 -6z
m-6419 -4 c4 -6 -6 -10 -22 -10 -22 0 -25 2 -13 10 19 12 27 12 35 0z m5818
-20 c3 -11 2 -20 -3 -20 -4 0 -10 9 -13 20 -3 11 -2 20 3 20 4 0 10 -9 13 -20z
m787 -76 c0 -8 -4 -12 -10 -9 -5 3 -10 10 -10 16 0 5 5 9 10 9 6 0 10 -7 10
-16z m-2500 -9 c0 -8 -7 -15 -15 -15 -8 0 -15 7 -15 15 0 8 7 15 15 15 8 0 15
-7 15 -15z m-2740 -5 c0 -5 -5 -10 -11 -10 -5 0 -7 5 -4 10 3 6 8 10 11 10 2
0 4 -4 4 -10z m2675 -21 c4 -6 5 -12 2 -15 -7 -7 -37 7 -37 17 0 13 27 11 35
-2z m-3677 -17 c-10 -2 -18 -9 -18 -15 0 -8 -4 -7 -12 1 -20 20 -28 14 -28
-19 0 -16 -3 -28 -7 -26 -5 3 -7 -11 -7 -31 3 -67 3 -67 16 -54 7 7 17 12 22
12 6 0 5 -5 -2 -12 -7 -7 -12 -22 -12 -35 0 -13 -4 -23 -10 -23 -5 0 -10 -9
-10 -21 0 -11 -4 -18 -9 -15 -5 3 -7 25 -4 48 5 32 2 44 -11 54 -15 10 -17 23
-12 70 3 31 8 59 11 62 8 9 89 19 100 13 6 -3 2 -7 -7 -9z m1666 -41 c-4 -3
-9 -1 -11 6 -2 6 -15 9 -29 7 -28 -5 -35 22 -6 29 18 4 57 -31 46 -42z m4063
7 c-3 -7 -5 -2 -5 12 0 14 2 19 5 13 2 -7 2 -19 0 -25z m53 -18 c-16 -31 -23
-19 -9 16 6 16 13 24 16 17 2 -7 -1 -22 -7 -33z m-76 -27 c-8 -47 -14 -55 -14
-20 0 14 -3 32 -6 41 -4 11 -1 16 10 16 14 0 16 -7 10 -37z m-5727 -25 c-3 -8
-6 -5 -6 6 -1 11 2 17 5 13 3 -3 4 -12 1 -19z m5781 9 c-9 -7 -18 -28 -20 -47
-2 -19 -10 -35 -18 -38 -12 -4 -13 -2 -2 9 6 7 12 27 12 45 0 30 10 42 35 43
6 0 2 -5 -7 -12z m349 -19 c-3 -7 -5 -2 -5 12 0 14 2 19 5 13 2 -7 2 -19 0
-25z m-323 -168 c-9 -85 -6 -157 7 -182 12 -23 4 -37 -12 -21 -6 6 -18 9 -27
5 -12 -4 -14 -1 -8 14 15 36 18 54 10 54 -11 0 -10 152 1 199 7 33 8 34 22 15
11 -14 13 -34 7 -84z m-75 25 c0 -30 -5 -55 -10 -55 -5 0 -9 11 -9 24 0 26 11
86 16 86 1 0 3 -25 3 -55z m518 -7 c-2 -13 -4 -5 -4 17 -1 22 1 32 4 23 2 -10
2 -28 0 -40z m-5242 32 c18 -8 17 -9 -7 -9 -16 -1 -28 4 -28 9 0 12 8 12 35 0z
m4916 -23 c-10 -9 -11 -8 -5 6 3 10 9 15 12 12 3 -3 0 -11 -7 -18z m-5990 -38
c-6 -24 -9 -28 -10 -12 -1 24 9 56 16 50 2 -3 0 -20 -6 -38z m56 -11 c-3 -8
-6 -5 -6 6 -1 11 2 17 5 13 3 -3 4 -12 1 -19z m993 12 c0 -5 -5 -10 -11 -10
-5 0 -7 5 -4 10 3 6 8 10 11 10 2 0 4 -4 4 -10z m2554 -26 c14 -11 15 -15 4
-11 -14 5 -16 2 -9 -16 6 -16 3 -26 -12 -39 -12 -11 -15 -18 -7 -18 10 0 10
-3 0 -15 -7 -9 -10 -18 -6 -22 3 -3 6 -1 6 6 0 7 5 9 12 5 8 -5 6 -11 -5 -19
-21 -15 -39 -63 -32 -85 3 -10 -1 -25 -10 -33 -8 -9 -12 -23 -9 -31 3 -9 1
-22 -4 -29 -6 -7 -14 -32 -18 -55 -4 -23 -10 -42 -14 -42 -7 0 -17 -22 -29
-67 -12 -45 -31 -7 -42 83 -17 142 -15 271 8 388 l5 29 70 -7 c39 -3 80 -13
92 -22z m2123 10 c2 -6 -8 -10 -24 -9 -20 2 -21 1 -5 -2 36 -7 20 -28 -24 -32
-32 -3 -35 -5 -19 -12 12 -5 -120 -8 -320 -8 -187 1 -344 0 -350 -1 -5 -1 -1
-5 10 -9 11 -5 -20 -6 -70 -3 -179 9 -332 11 -290 2 22 -5 69 -7 105 -6 36 2
76 -1 90 -5 15 -4 -17 -8 -81 -8 -161 -1 -323 -13 -307 -22 8 -5 113 -3 234 3
120 6 254 11 296 11 43 -1 76 3 73 7 -6 10 117 17 147 8 18 -5 15 -6 -14 -7
-20 -1 -49 -6 -65 -12 -31 -13 -81 -15 -503 -23 -157 -3 -329 -8 -382 -12 -75
-5 -98 -4 -98 5 0 9 16 12 53 10 38 -2 51 1 49 11 -2 8 5 11 23 8 14 -3 51 1
82 8 l58 14 -60 -7 c-86 -9 -447 -10 -432 -1 7 4 -8 8 -34 8 -29 0 -51 -6 -59
-15 -7 -8 -24 -14 -39 -14 -20 1 -21 2 -6 6 54 12 42 18 -40 23 -84 5 -90 7
-93 28 -3 22 -2 22 110 23 127 0 338 6 473 13 50 3 270 8 490 12 220 3 531 10
690 14 336 8 327 8 332 -6z m-5652 -62 c-5 -20 -8 -23 -16 -11 -5 7 -9 25 -9
39 0 20 2 22 10 10 8 -12 10 -10 11 10 2 25 2 25 6 1 3 -12 2 -35 -2 -49z
m5685 53 c0 -8 -4 -15 -10 -15 -5 0 -10 7 -10 15 0 8 5 15 10 15 6 0 10 -7 10
-15z m270 -5 c6 -11 13 -55 15 -97 4 -63 3 -73 -6 -53 -6 14 -15 33 -20 42 -9
18 -13 128 -4 128 2 0 9 -9 15 -20z m207 -27 c-3 -10 -5 -2 -5 17 0 19 2 27 5
18 2 -10 2 -26 0 -35z m-5150 11 c-3 -3 -12 -4 -19 -1 -8 3 -5 6 6 6 11 1 17
-2 13 -5z m404 -26 c1 -69 8 -118 36 -258 23 -113 28 -152 20 -175 -6 -16 -13
-32 -17 -35 -13 -10 -40 -104 -41 -144 -1 -26 -3 -32 -6 -16 -2 14 -10 39 -18
55 -7 17 -21 57 -30 90 -10 33 -32 101 -50 150 -18 50 -41 116 -51 148 -10 31
-21 57 -25 57 -4 0 -6 8 -5 18 1 23 -66 27 -199 12 -55 -7 -144 -15 -197 -19
-54 -4 -101 -10 -104 -14 -13 -13 69 -19 114 -7 26 6 115 16 197 21 188 11
175 10 175 1 0 -8 1 -8 -120 -15 -110 -7 -233 -25 -240 -36 -3 -5 -24 -6 -48
-1 -24 4 -76 4 -115 -1 -97 -11 -117 -11 -117 1 0 6 26 10 58 11 41 0 51 3 37
9 -32 14 -123 11 -160 -4 -26 -11 -43 -12 -70 -5 -37 10 -106 4 -136 -12 -11
-5 -28 -3 -48 7 -24 12 -47 14 -94 9 -57 -6 -61 -6 -42 9 11 8 40 16 65 16 31
0 41 3 30 9 -8 6 -28 7 -45 5 -19 -4 -26 -3 -17 3 7 5 10 17 6 26 -4 13 -1 17
15 17 20 0 339 9 850 25 168 5 185 7 200 26 21 26 85 48 144 49 46 0 47 0 48
-32z m-816 2 c4 -6 -7 -10 -27 -9 -31 1 -32 1 -8 9 14 4 26 8 27 9 1 1 5 -3 8
-9z m395 0 c0 -5 -7 -10 -16 -10 -8 0 -12 5 -9 10 3 6 10 10 16 10 5 0 9 -4 9
-10z m4226 -35 c-8 -8 -22 -12 -31 -9 -13 6 -14 8 -3 15 7 5 21 9 31 9 16 0
17 -2 3 -15z m114 5 c0 -5 -15 -10 -34 -10 -19 0 -38 5 -41 10 -4 6 10 10 34
10 23 0 41 -4 41 -10z m160 -11 c-14 -4 -19 -7 -11 -8 8 -1 12 -3 9 -6 -3 -3
-18 0 -34 6 -16 6 -45 11 -64 11 -34 0 -34 0 -6 6 16 4 52 5 80 3 41 -3 46 -6
26 -12z m-4980 1 c0 -5 -4 -10 -10 -10 -5 0 -10 5 -10 10 0 6 5 10 10 10 6 0
10 -4 10 -10z m1140 -3 c0 -25 -24 -37 -72 -37 -41 0 -48 3 -48 19 0 15 8 21
38 24 74 7 82 7 82 -6z m4405 3 c3 -5 1 -10 -4 -10 -6 0 -11 5 -11 10 0 6 2
10 4 10 3 0 8 -4 11 -10z m-6052 -7 c-7 -2 -13 -12 -13 -20 0 -9 -3 -14 -6
-10 -10 10 4 37 18 36 10 0 10 -2 1 -6z m3642 -3 c-3 -5 -10 -10 -16 -10 -5 0
-9 5 -9 10 0 6 7 10 16 10 8 0 12 -4 9 -10z m1974 -6 c2 -2 -25 -4 -60 -4 -44
0 -59 3 -49 10 13 8 98 3 109 -6z m578 -6 c-3 -8 -6 -5 -6 6 -1 11 2 17 5 13
3 -3 4 -12 1 -19z m-6467 -13 c0 -16 -34 -38 -44 -28 -7 7 23 43 36 43 4 0 8
-7 8 -15z m4285 5 c26 -1 27 -2 10 -10 l-20 -9 20 0 c17 -1 17 -3 5 -11 -10
-6 -16 -6 -18 0 -2 6 -18 10 -35 10 -23 0 -28 3 -18 9 9 6 -34 8 -110 5 -68
-2 -116 -1 -107 3 15 7 164 8 273 3z m1133 -5 c-25 -7 -58 -10 -73 -8 -18 4
-31 0 -41 -13 -14 -18 -15 -18 -12 1 4 22 40 32 123 33 l50 0 -47 -13z m331
-5 c8 -4 -35 -8 -97 -8 -70 1 -117 -4 -126 -11 -9 -8 -25 -8 -52 -2 l-39 9 38
1 c20 1 37 5 37 10 0 5 10 12 23 14 33 6 200 -3 216 -13z m579 -101 c-3 -78
-10 -124 -18 -132 -10 -10 -11 -6 -4 18 5 17 9 73 10 125 1 108 2 110 10 110
4 0 5 -54 2 -121z m1890 104 c-10 -2 -26 -2 -35 0 -10 3 -2 5 17 5 19 0 27 -2
18 -5z m-365 -10 c-13 -2 -35 -2 -50 0 -16 2 -5 4 22 4 28 0 40 -2 28 -4z
m110 0 c-7 -2 -19 -2 -25 0 -7 3 -2 5 12 5 14 0 19 -2 13 -5z m-8071 -25 c-7
-7 -12 -8 -12 -2 0 14 12 26 19 19 2 -3 -1 -11 -7 -17z m4311 15 c-7 -2 -21
-2 -30 0 -10 3 -4 5 12 5 17 0 24 -2 18 -5z m402 -8 c6 -2 -19 -3 -55 -4 -37
0 -57 4 -47 8 17 6 79 4 102 -4z m625 5 c0 -6 -33 -11 -72 -12 -214 -6 -305
-1 -249 12 43 9 321 9 321 0z m755 2 c6 -4 11 -36 13 -71 3 -55 1 -63 -13 -57
-9 3 -20 6 -25 6 -5 0 -4 15 1 33 22 70 23 67 -39 61 -40 -4 -62 -2 -75 8 -15
11 -10 13 38 11 30 0 57 3 61 8 6 11 25 11 39 1z m1255 -2 c0 -5 -7 -10 -16
-10 -8 0 -12 5 -9 10 3 6 10 10 16 10 5 0 9 -4 9 -10z m-3122 -7 c-10 -2 -28
-2 -40 0 -13 2 -5 4 17 4 22 1 32 -1 23 -4z m715 0 c-13 -2 -33 -2 -45 0 -13
2 -3 4 22 4 25 0 35 -2 23 -4z m2475 0 c-10 -2 -26 -2 -35 0 -10 3 -2 5 17 5
19 0 27 -2 18 -5z m-3535 -18 c-3 -9 -8 -14 -10 -11 -3 3 -2 9 2 15 9 16 15
13 8 -4z m2807 5 c20 -6 14 -8 -27 -9 -28 -1 -55 4 -58 9 -7 12 48 12 85 0z
m-1200 -14 c-8 -7 -31 -16 -50 -19 l-35 -6 35 19 c43 24 72 27 50 6z m235 4
c-3 -5 -17 -10 -30 -10 -13 0 -27 5 -30 10 -4 6 8 10 30 10 22 0 34 -4 30 -10z
m52 4 c-3 -3 -12 -4 -19 -1 -8 3 -5 6 6 6 11 1 17 -2 13 -5z m76 -1 c-13 -2
-33 -2 -45 0 -13 2 -3 4 22 4 25 0 35 -2 23 -4z m2150 0 c-7 -2 -19 -2 -25 0
-7 3 -2 5 12 5 14 0 19 -2 13 -5z m-2848 -13 c-3 -5 -15 -10 -26 -10 -11 0
-17 5 -14 10 3 6 15 10 26 10 11 0 17 -4 14 -10z m220 1 c-15 -13 -213 -26
-200 -12 6 5 46 12 90 14 44 1 89 4 100 5 11 1 15 -2 10 -7z m210 -1 c-3 -5
-16 -10 -28 -9 -20 1 -20 2 3 9 14 4 26 8 28 9 2 1 0 -3 -3 -9z m1515 6 c0 -9
-30 -14 -35 -6 -4 6 3 10 14 10 12 0 21 -2 21 -4z m-2920 -16 c12 -8 9 -10
-12 -10 -15 0 -30 5 -33 10 -8 13 25 13 45 0z m613 3 c-7 -2 -19 -2 -25 0 -7
3 -2 5 12 5 14 0 19 -2 13 -5z m142 -3 c3 -5 -1 -10 -9 -10 -8 0 -18 5 -21 10
-3 6 1 10 9 10 8 0 18 -4 21 -10z m125 3 c-57 -18 -70 -21 -70 -13 0 5 8 11
18 13 23 6 71 7 52 0z m945 -13 c3 -5 0 -11 -7 -11 -56 -6 -78 -6 -110 -2 -21
3 -35 9 -32 14 7 12 141 11 149 -1z m190 0 c10 -17 -6 -59 -21 -53 -19 7 -19
63 0 63 8 0 17 -4 21 -10z m836 -7 c9 -9 -5 -11 -57 -8 -38 2 -109 5 -159 6
-69 1 -82 3 -55 9 54 12 257 7 271 -7z m196 11 c-3 -3 -12 -4 -19 -1 -8 3 -5
6 6 6 11 1 17 -2 13 -5z m46 -1 c-7 -2 -19 -2 -25 0 -7 3 -2 5 12 5 14 0 19
-2 13 -5z m-6783 -22 c0 -3 -11 -6 -25 -6 -26 0 -34 10 -12 18 14 5 37 -2 37
-12z m1065 -3 c-16 -5 -48 -7 -70 -4 -22 2 -103 -4 -180 -13 -77 -10 -149 -16
-160 -13 -26 8 115 30 224 36 46 3 85 6 86 8 2 2 32 1 67 -1 56 -3 60 -5 33
-13z m4285 18 c0 -3 -4 -8 -10 -11 -5 -3 -10 -1 -10 4 0 6 5 11 10 11 6 0 10
-2 10 -4z m1570 -6 c-30 -3 -66 -3 -80 1 -15 4 6 7 55 7 77 -1 78 -1 25 -8z
m-6807 -13 c34 2 37 1 17 -6 -37 -13 -108 -13 -116 0 -4 7 0 9 14 5 12 -4 24
-2 28 6 4 6 9 8 11 2 2 -5 22 -8 46 -7z m317 3 c-8 -5 -24 -9 -35 -9 l-20 0
20 9 c11 5 27 9 35 9 13 1 13 0 0 -9z m-213 -6 c-3 -3 -12 -4 -19 -1 -8 3 -5
6 6 6 11 1 17 -2 13 -5z m106 -10 c-23 -10 -40 -11 -58 -4 -14 5 -25 11 -25
13 0 2 26 4 58 4 57 0 57 0 25 -13z m4974 10 c-3 -3 -12 -4 -19 -1 -8 3 -5 6
6 6 11 1 17 -2 13 -5z m1940 0 c-3 -3 -12 -4 -19 -1 -8 3 -5 6 6 6 11 1 17 -2
13 -5z m240 -10 c-3 -3 -12 -4 -19 -1 -8 3 -5 6 6 6 11 1 17 -2 13 -5z m-6884
-11 c-13 -2 -33 -2 -45 0 -13 2 -3 4 22 4 25 0 35 -2 23 -4z m4322 -13 c-3 -5
-23 -9 -43 -9 l-37 2 40 7 c22 4 41 8 43 9 2 0 0 -3 -3 -9z m268 3 c-13 -2
-35 -2 -50 0 -16 2 -5 4 22 4 28 0 40 -2 28 -4z m314 -9 c-3 -3 -12 -4 -19 -1
-8 3 -5 6 6 6 11 1 17 -2 13 -5z m200 -36 c-3 -8 -6 -5 -6 6 -1 11 2 17 5 13
3 -3 4 -12 1 -19z m-800 6 c-3 -3 -12 -4 -19 -1 -8 3 -5 6 6 6 11 1 17 -2 13
-5z m-4564 -11 c-7 -2 -19 -2 -25 0 -7 3 -2 5 12 5 14 0 19 -2 13 -5z m135 0
c-10 -2 -26 -2 -35 0 -10 3 -2 5 17 5 19 0 27 -2 18 -5z m-964 -18 c7 -19 -3
-47 -15 -39 -12 7 -12 54 0 54 5 0 11 -7 15 -15z m796 5 c19 -12 -82 -12 -120
0 -18 6 -8 8 40 9 36 0 72 -4 80 -9z m117 -26 c-3 -3 -12 -4 -19 -1 -8 3 -5 6
6 6 11 1 17 -2 13 -5z m-264 -11 c-18 -2 -48 -2 -65 0 -18 2 -4 4 32 4 36 0
50 -2 33 -4z m5513 -37 c-12 -25 -16 -63 -16 -141 0 -74 -3 -104 -11 -99 -6 3
-9 21 -7 39 2 19 0 31 -4 29 -4 -3 -8 0 -8 5 0 6 4 11 8 11 5 0 8 21 6 48 -2
44 32 160 44 148 2 -3 -3 -21 -12 -40z m254 -58 c0 -10 -5 -18 -11 -18 -6 0
-8 -7 -5 -16 3 -8 2 -12 -4 -9 -6 3 -10 30 -10 58 1 50 1 51 15 27 8 -14 14
-33 15 -42z m-6336 28 c-6 -15 -24 -23 -24 -11 0 8 24 34 28 30 1 -1 0 -10 -4
-19z m4583 8 c-3 -3 -12 -4 -19 -1 -8 3 -5 6 6 6 11 1 17 -2 13 -5z m1555 -34
c3 -17 1 -33 -4 -36 -4 -3 -8 4 -8 15 0 10 -3 26 -6 35 -3 9 -2 16 4 16 5 0
12 -14 14 -30z m-2312 -1 c0 -6 -4 -7 -10 -4 -5 3 -10 11 -10 16 0 6 5 7 10 4
6 -3 10 -11 10 -16z m-3877 -23 c4 -11 1 -13 -11 -9 -13 5 -14 3 -5 -7 9 -10
7 -17 -7 -32 -10 -11 -22 -18 -27 -15 -4 3 -17 -7 -27 -21 -12 -15 -14 -22 -5
-17 8 4 2 -5 -13 -22 -16 -16 -28 -34 -28 -41 0 -7 -16 -35 -36 -62 -20 -28
-34 -53 -31 -56 2 -3 24 14 47 38 36 36 40 38 25 13 -21 -35 -62 -75 -76 -75
-5 0 -9 -4 -9 -10 0 -5 -7 -10 -16 -10 -12 0 -14 -3 -6 -13 9 -10 1 -25 -29
-63 -23 -27 -47 -50 -54 -52 -7 -2 -17 -14 -23 -26 -6 -14 -19 -23 -29 -23 -9
1 -18 -4 -19 -10 -1 -7 -2 -17 -3 -22 0 -4 -11 -19 -23 -33 -13 -13 -36 -41
-52 -62 -15 -20 -30 -36 -32 -33 -6 6 49 107 59 107 13 0 37 27 37 42 0 17 65
116 95 144 12 11 28 32 35 45 8 13 35 52 62 87 26 35 46 68 42 73 -8 14 34 77
56 84 11 4 20 10 20 14 0 5 13 14 30 21 16 7 28 16 25 20 -6 11 5 40 15 40 4
0 10 -7 13 -14z m4988 -39 c0 -21 1 -21 10 3 8 20 12 22 19 10 6 -8 9 -29 8
-46 -2 -31 -3 -31 -25 -17 -13 9 -23 18 -24 22 0 3 -2 18 -4 34 -2 15 0 25 6
22 5 -4 9 -16 10 -28z m1296 -19 c-2 -13 -4 -5 -4 17 -1 22 1 32 4 23 2 -10 2
-28 0 -40z m-2377 7 c0 -14 -4 -25 -9 -25 -4 0 -6 11 -3 25 2 14 6 25 8 25 2
0 4 -11 4 -25z m784 -1 c3 -8 2 -12 -4 -9 -6 3 -10 10 -10 16 0 14 7 11 14 -7z
m-4689 -27 c-9 -14 -23 -28 -31 -31 -9 -3 -4 9 12 29 30 40 45 41 19 2z m4435
29 c0 -3 -4 -8 -10 -11 -5 -3 -10 -1 -10 4 0 6 5 11 10 11 6 0 10 -2 10 -4z
m346 -45 c-7 -9 -11 -22 -9 -28 3 -7 0 -13 -6 -13 -6 0 -11 5 -11 10 0 6 -12
10 -27 11 l-28 1 25 8 c14 4 21 8 17 9 -5 1 -5 6 -1 12 4 8 9 7 15 -2 4 -7 11
-10 15 -6 4 4 2 13 -4 19 -21 21 -13 32 8 13 17 -16 18 -20 6 -34z m-456 19
c13 -8 13 -10 -2 -10 -9 0 -20 5 -23 10 -8 13 5 13 25 0z m80 -30 c0 -5 -4
-10 -10 -10 -5 0 -10 5 -10 10 0 6 5 10 10 10 6 0 10 -4 10 -10z m1996 -17
c-3 -8 -6 -29 -6 -45 0 -43 -6 -32 -13 24 -6 40 -4 46 9 41 8 -3 13 -12 10
-20z m-2637 -8 c-9 -37 -12 -45 -20 -45 -11 0 -11 7 -3 38 6 21 28 28 23 7z
m-29 1 c0 -3 -4 -8 -10 -11 -5 -3 -10 -1 -10 4 0 6 5 11 10 11 6 0 10 -2 10
-4z m2579 -44 c1 -7 -3 -10 -9 -7 -5 3 -10 18 -9 33 0 24 1 25 9 7 5 -11 9
-26 9 -33z m-6378 4 c-11 -26 -31 -36 -31 -14 0 13 31 50 37 44 2 -2 -1 -15
-6 -30z m3978 18 c2 -2 2 -7 -2 -10 -3 -3 -16 2 -29 11 l-23 17 25 -7 c14 -4
27 -9 29 -11z m2440 -66 c0 -35 -4 -70 -9 -78 -11 -16 -12 57 -2 113 7 41 10
33 11 -35z m126 -38 c-17 -36 -17 -35 2 55 7 38 8 39 11 10 2 -17 -4 -46 -13
-65z m-1094 43 c-8 -15 -10 -15 -11 -2 0 17 10 32 18 25 2 -3 -1 -13 -7 -23z
m-21 -24 c0 -18 -18 -9 -23 12 -4 16 -3 18 9 8 8 -6 14 -15 14 -20z m-733 -11
c-3 -8 -6 -5 -6 6 -1 11 2 17 5 13 3 -3 4 -12 1 -19z m-656 -13 c3 2 5 -5 6
-15 2 -26 -1 -25 -23 8 -13 19 -13 24 -2 15 8 -7 17 -11 19 -8z m2117 -50 l0
-30 -8 30 c-4 17 -8 39 -8 50 l-1 20 9 -20 c5 -11 8 -33 8 -50z m79 -32 c-3
-10 -5 -4 -5 12 0 17 2 24 5 18 2 -7 2 -21 0 -30z m-6313 3 c-3 -8 -12 -17
-20 -20 -12 -4 -12 -2 -4 14 12 23 32 27 24 6z m4176 4 c0 -5 -4 -10 -10 -10
-5 0 -10 5 -10 10 0 6 5 10 10 10 6 0 10 -4 10 -10z m2057 -42 c-3 -7 -5 -2
-5 12 0 14 2 19 5 13 2 -7 2 -19 0 -25z m-2072 -17 l20 -24 -22 12 c-13 6 -23
19 -23 28 0 9 1 14 3 12 1 -2 11 -15 22 -28z m2142 -13 c-3 -8 -6 -5 -6 6 -1
11 2 17 5 13 3 -3 4 -12 1 -19z m-1762 2 c3 -5 2 -10 -4 -10 -5 0 -13 5 -16
10 -3 6 -2 10 4 10 5 0 13 -4 16 -10z m91 -37 c-6 -6 -46 30 -46 41 0 5 11 -1
25 -14 14 -13 23 -25 21 -27z m404 27 c0 -5 -2 -10 -4 -10 -3 0 -8 5 -11 10
-3 6 -1 10 4 10 6 0 11 -4 11 -10z m-5120 -22 c-12 -13 -28 -31 -37 -40 -9
-10 -21 -28 -27 -40 -6 -13 -22 -25 -35 -26 -20 -3 -14 6 33 55 31 32 56 61
56 66 0 4 7 7 15 7 12 0 11 -5 -5 -22z m6570 -20 c0 -5 -4 -8 -10 -8 -5 0 -10
10 -10 23 0 18 2 19 10 7 5 -8 10 -18 10 -22z m-1905 12 c-3 -5 -10 -10 -16
-10 -5 0 -9 5 -9 10 0 6 7 10 16 10 8 0 12 -4 9 -10z m582 4 c-3 -3 -12 -4
-19 -1 -8 3 -5 6 6 6 11 1 17 -2 13 -5z m1043 -15 c0 -11 -4 -17 -10 -14 -5 3
-10 13 -10 21 0 8 5 14 10 14 6 0 10 -9 10 -21z m-6260 -19 c-6 -11 -16 -20
-22 -20 -6 0 -3 9 7 20 10 11 20 20 22 20 2 0 -1 -9 -7 -20z m4520 -36 c0 -8
-4 -14 -10 -14 -5 0 -10 4 -10 9 0 5 -3 18 -7 28 -6 16 -5 16 10 4 9 -7 17
-20 17 -27z m188 12 c-7 -8 -15 -12 -17 -11 -5 6 10 25 20 25 5 0 4 -6 -3 -14z
m389 -8 c-3 -8 -6 -5 -6 6 -1 11 2 17 5 13 3 -3 4 -12 1 -19z m1280 -45 c-3
-10 -5 -4 -5 12 0 17 2 24 5 18 2 -7 2 -21 0 -30z m-180 -10 c-3 -10 -5 -4 -5
12 0 17 2 24 5 18 2 -7 2 -21 0 -30z m-1452 -4 c-4 -5 -18 -15 -32 -20 -25 -9
-25 -10 -7 -24 18 -14 18 -15 -3 -21 -13 -3 -20 -11 -16 -17 3 -5 1 -7 -5 -3
-6 3 -10 20 -10 37 1 21 8 34 27 44 31 17 55 19 46 4z m1562 -11 c-3 -8 -6 -5
-6 6 -1 11 2 17 5 13 3 -3 4 -12 1 -19z m-1292 2 c3 -5 1 -10 -4 -10 -6 0 -11
5 -11 10 0 6 2 10 4 10 3 0 8 -4 11 -10z m1369 -181 c-2 -4 0 -9 6 -11 7 -2 7
-13 0 -33 -5 -17 -14 -57 -19 -90 -8 -57 -8 -58 -10 -16 -1 31 -5 42 -14 38
-10 -4 -14 4 -14 24 0 16 3 27 5 24 3 -3 11 0 19 6 9 8 13 44 14 128 l2 116 8
-90 c4 -49 6 -92 3 -96z m190 48 c6 -21 5 -27 -5 -25 -8 2 -16 -9 -20 -27 -5
-21 -6 -17 -3 14 2 24 5 74 5 110 l2 66 7 -55 c3 -30 10 -68 14 -83z m-6459
57 c-6 -83 -15 -97 -15 -21 0 50 7 87 15 87 2 0 2 -30 0 -66z m-238 31 c-4 -8
-11 -15 -17 -15 -6 0 -6 7 2 20 14 22 24 19 15 -5z m5720 -7 c-3 -8 -6 -5 -6
6 -1 11 2 17 5 13 3 -3 4 -12 1 -19z m698 -64 c-7 -71 -6 -74 14 -74 14 0 21
-6 21 -20 0 -22 -15 -27 -23 -7 -3 6 -6 2 -6 -9 -1 -12 -7 -24 -14 -27 -10 -4
-12 10 -11 57 1 33 2 85 3 114 1 35 5 51 12 47 7 -5 8 -32 4 -81z m-55 66 c0
-5 -5 -10 -11 -10 -5 0 -7 5 -4 10 3 6 8 10 11 10 2 0 4 -4 4 -10z m-1003 -32
c-3 -7 -5 -2 -5 12 0 14 2 19 5 13 2 -7 2 -19 0 -25z m-5387 3 c0 -5 -7 -14
-15 -21 -16 -14 -18 -10 -9 14 6 17 24 22 24 7z m-201 -34 c-26 -50 -65 -107
-73 -107 -5 0 -2 8 6 18 8 9 26 40 39 68 13 28 27 49 32 47 4 -2 2 -14 -4 -26z
m111 8 c-7 -9 -15 -13 -18 -10 -3 2 1 11 8 20 7 9 15 13 18 10 3 -2 -1 -11 -8
-20z m6897 3 c-3 -8 -6 -5 -6 6 -1 11 2 17 5 13 3 -3 4 -12 1 -19z m-1263 -57
c-2 -2 -11 4 -20 14 -15 14 -15 18 -3 26 10 6 16 2 20 -14 3 -12 4 -24 3 -26z
m833 7 c-3 -7 -5 -2 -5 12 0 14 2 19 5 13 2 -7 2 -19 0 -25z m-867 -8 c0 -5
-4 -10 -9 -10 -6 0 -13 5 -16 10 -3 6 1 10 9 10 9 0 16 -4 16 -10z m790 -85
c-7 -8 -16 -12 -21 -9 -5 3 -9 1 -9 -5 0 -5 6 -11 13 -14 6 -2 8 -8 4 -13 -5
-5 -64 -8 -132 -6 -76 1 -126 -1 -130 -8 -3 -5 -35 -10 -71 -10 -35 0 -64 -4
-64 -8 0 -4 -31 -7 -70 -7 -38 0 -70 3 -70 6 0 3 48 11 108 18 59 7 117 17
129 23 12 6 29 8 37 5 9 -4 16 -1 16 6 0 18 70 19 97 1 12 -8 27 -14 33 -14
17 0 11 18 -7 23 -11 3 -7 5 10 6 15 0 27 7 27 14 0 9 -20 11 -81 7 -44 -3
-83 -2 -86 3 -2 4 -17 6 -33 5 -16 -1 -26 -6 -24 -10 3 -4 -17 -5 -43 -3 -32
4 -41 2 -28 -3 16 -7 10 -10 -29 -16 -35 -6 -45 -10 -35 -17 9 -6 -8 -9 -51
-10 -36 -1 -76 -4 -90 -5 -14 -2 -113 -6 -220 -9 -107 -3 -205 -7 -217 -10
-12 -3 -24 -1 -27 4 -9 14 49 21 193 22 75 0 172 5 216 10 44 6 102 12 128 13
26 2 51 7 55 11 4 4 -33 5 -83 1 -328 -23 -891 -38 -1043 -26 -40 3 -78 3 -83
-1 -17 -10 118 -19 305 -19 99 0 177 -2 174 -5 -9 -9 -630 -14 -677 -5 -82 15
-218 23 -201 11 8 -6 41 -11 72 -11 31 0 59 -3 62 -8 2 -4 -86 -8 -197 -9
-113 0 -189 3 -172 7 17 4 24 8 17 9 -7 0 -10 6 -7 11 4 6 -5 10 -19 10 -14 0
-26 4 -26 9 0 5 35 9 78 10 42 0 88 1 102 2 14 1 52 -1 85 -4 40 -4 50 -4 30
2 l-30 9 38 1 c23 1 36 -3 32 -9 -4 -6 6 -10 22 -9 24 0 25 1 8 9 -12 4 42 8
130 9 83 1 194 4 248 7 69 3 97 1 97 -7 0 -8 4 -8 13 -1 18 15 90 19 390 26
147 3 271 7 276 10 6 4 56 6 201 6 13 0 280 6 413 9 35 1 47 5 47 17 0 8 5 12
10 9 6 -4 8 -10 6 -14 -5 -8 78 -12 112 -5 12 2 22 12 23 22 0 9 7 0 16 -21
12 -30 13 -40 3 -52z m-6113 -77 c-2 -29 -3 -6 -3 52 0 58 1 81 3 53 2 -29 2
-77 0 -105z m7858 142 c-27 -4 -42 -8 -32 -8 10 -1 15 -7 12 -12 -4 -6 -23 -8
-43 -5 -28 4 -32 3 -17 -4 30 -14 85 -13 83 2 -2 7 9 13 27 15 28 2 29 1 12
-12 -17 -13 -17 -15 -1 -24 28 -16 -2 -24 -47 -12 -55 15 -346 -1 -335 -18 2
-4 77 -3 166 2 115 6 165 5 173 -3 8 -8 -8 -11 -58 -12 -39 0 -88 -4 -110 -9
-31 -7 -24 -7 30 -3 39 3 66 2 62 -3 -9 -9 -8 -9 -102 -18 -38 -4 -85 -10
-104 -13 -24 -4 -32 -2 -27 6 4 6 11 9 16 6 5 -3 22 1 37 10 18 10 21 14 8 11
-23 -6 -75 -8 -122 -7 -39 1 -45 21 -6 21 14 0 23 3 20 7 -9 9 -137 10 -137 1
0 -4 -10 -8 -22 -11 -13 -2 4 -2 38 1 48 4 62 1 67 -11 3 -8 25 -19 49 -23
l43 -8 -45 -6 c-25 -3 -70 -1 -100 3 -30 5 -94 7 -142 5 -49 -2 -88 -1 -88 3
0 3 33 11 73 16 l72 10 -70 3 c-55 2 -64 4 -40 10 26 7 22 8 -22 9 -32 1 -53
-3 -53 -10 0 -5 -4 -8 -9 -4 -5 3 -42 2 -82 -1 -44 -5 -66 -10 -54 -14 35 -12
-3 -21 -67 -15 -91 8 -208 28 -208 35 0 3 27 6 61 6 33 1 66 7 72 14 9 9 2 10
-35 5 -25 -4 -55 -4 -67 0 -23 7 -29 31 -8 32 6 1 125 6 262 12 138 7 375 14
529 16 153 2 281 7 284 10 3 3 28 4 56 3 l51 -1 -50 -7z m224 -6 c2 -2 -19 -4
-47 -4 -29 0 -52 4 -52 10 0 9 88 3 99 -6z m-7999 -51 c0 -18 -4 -33 -9 -33
-5 0 -9 21 -9 48 -1 33 1 43 8 32 5 -8 10 -30 10 -47z m2160 42 c0 -8 -4 -15
-9 -15 -5 0 -11 7 -15 15 -3 9 0 15 9 15 8 0 15 -7 15 -15z m4307 -17 c-3 -8
-6 -5 -6 6 -1 11 2 17 5 13 3 -3 4 -12 1 -19z m1416 15 c-7 -2 -19 -2 -25 0
-7 3 -2 5 12 5 14 0 19 -2 13 -5z m-5969 -18 c-7 -16 -24 -21 -24 -6 0 8 7 13
27 20 1 1 0 -6 -3 -14z m3839 -22 c-7 -2 -19 -2 -25 0 -7 3 -2 5 12 5 14 0 19
-2 13 -5z m-10 -20 c-13 -2 -35 -2 -50 0 -16 2 -5 4 22 4 28 0 40 -2 28 -4z
m617 -23 c0 -11 -4 -20 -9 -20 -5 0 -7 9 -4 20 3 11 7 20 9 20 2 0 4 -9 4 -20z
m-4610 0 c0 -5 -2 -10 -4 -10 -3 0 -8 5 -11 10 -3 6 -1 10 4 10 6 0 11 -4 11
-10z m3908 3 c-10 -2 -26 -2 -35 0 -10 3 -2 5 17 5 19 0 27 -2 18 -5z m2395
-26 c3 -8 -15 -12 -59 -12 -60 -1 -73 3 -58 18 11 11 112 6 117 -6z m-1008 -7
c-3 -5 -26 -10 -51 -10 -24 0 -44 5 -44 10 0 6 23 10 51 10 31 0 48 -4 44 -10z
m-7075 -69 c0 -32 5 -63 13 -70 10 -11 10 -14 0 -18 -7 -3 -13 -15 -13 -28 0
-12 -8 -40 -17 -61 l-17 -39 -4 28 c-2 16 4 45 13 64 13 27 16 54 12 114 -2
43 0 76 4 73 5 -3 9 -31 9 -63z m2253 38 c3 -10 4 -19 4 -19 -1 0 -38 -2 -82
-5 -54 -2 -69 -1 -45 4 27 7 17 8 -45 8 -44 0 -64 -2 -45 -4 40 -5 65 -22 35
-24 -13 -1 -9 -4 10 -9 22 -5 13 -7 -35 -7 -162 1 -521 -22 -755 -48 -39 -4
-39 -4 10 11 86 27 94 34 35 28 -30 -4 -77 -14 -105 -23 -91 -29 -529 -17
-548 15 -4 8 -15 14 -23 14 -8 0 -12 5 -9 10 4 6 10 8 14 6 16 -10 163 -18
157 -8 -3 6 32 10 92 11 53 1 111 4 127 6 34 5 468 31 637 38 76 3 122 -17 61
-26 -16 -2 -5 -4 22 -5 28 0 43 2 35 6 -14 6 -14 9 2 25 14 13 18 14 18 2 0
-10 8 -13 33 -8 17 3 65 7 104 9 40 1 77 5 83 9 5 3 13 4 18 2 4 -3 15 -2 24
2 9 3 50 5 91 3 64 -3 76 -6 80 -23z m3737 24 c-8 -2 -22 -7 -30 -9 -13 -5
-13 -6 0 -14 18 -12 -69 -12 -115 0 -24 5 -27 8 -13 14 9 4 24 3 34 -2 16 -9
79 -1 91 12 4 3 16 6 27 5 14 0 16 -2 6 -6z m247 -25 c-3 -7 -5 -2 -5 12 0 14
2 19 5 13 2 -7 2 -19 0 -25z m2021 26 c41 -11 23 -19 -35 -15 -42 2 -52 6 -38
12 25 10 44 10 73 3z m-7981 -26 c-3 -8 -6 -5 -6 6 -1 11 2 17 5 13 3 -3 4
-12 1 -19z m4033 12 c0 -5 -7 -10 -16 -10 -8 0 -12 5 -9 10 3 6 10 10 16 10 5
0 9 -4 9 -10z m1814 -11 c-7 -11 -71 -6 -84 7 -5 5 11 8 40 6 28 -2 47 -8 44
-13z m307 -15 c-5 -16 -10 -21 -10 -12 -1 18 10 51 15 45 2 -1 -1 -16 -5 -33z
m374 26 c3 -5 45 -10 93 -11 48 0 96 -5 107 -10 13 -6 -14 -7 -80 -4 -136 7
-195 15 -195 26 0 12 67 11 75 -1z m-2128 -6 c-3 -3 -12 -4 -19 -1 -8 3 -5 6
6 6 11 1 17 -2 13 -5z m603 -3 c0 -7 -41 -10 -117 -9 -88 1 -104 3 -63 7 106
12 180 12 180 2z m2036 0 c-18 -7 -66 -3 -66 5 0 2 19 4 43 3 30 0 36 -3 23
-8z m-2511 -10 c-6 -5 -28 -6 -50 -1 l-40 8 50 1 c29 1 45 -3 40 -8z m35 -1
c0 -5 -5 -10 -11 -10 -5 0 -7 5 -4 10 3 6 8 10 11 10 2 0 4 -4 4 -10z m1200
-6 c0 -2 -13 -4 -30 -4 -16 0 -30 4 -30 8 0 5 14 7 30 4 17 -2 30 -6 30 -8z
m1037 10 c-3 -3 -12 -4 -19 -1 -8 3 -5 6 6 6 11 1 17 -2 13 -5z m-2485 -16
c-9 -9 -15 -9 -24 0 -9 9 -7 12 12 12 19 0 21 -3 12 -12z m416 5 c-10 -2 -26
-2 -35 0 -10 3 -2 5 17 5 19 0 27 -2 18 -5z m3019 -3 c-32 -10 -198 -23 -182
-15 16 8 125 23 170 23 37 0 38 0 12 -8z m-2174 -10 c9 0 17 -4 17 -10 0 -13
-27 -11 -75 6 l-40 14 40 -5 c22 -3 48 -5 58 -5z m249 -2 c-8 -8 -17 -8 -34 0
-22 10 -21 11 12 11 26 1 31 -2 22 -11z m-5992 -24 c0 -8 -4 -14 -10 -14 -5 0
-10 9 -10 21 0 11 5 17 10 14 6 -3 10 -13 10 -21z m89 -15 c-22 -13 -31 2 -12
21 15 14 19 15 21 2 2 -8 -2 -18 -9 -23z m6642 31 c52 0 66 -3 66 -15 0 -12
-7 -14 -29 -10 -20 5 -36 0 -58 -15 -17 -12 -38 -20 -48 -17 -13 3 -11 6 11
15 38 16 34 21 -15 16 -24 -2 -37 -1 -30 2 10 5 10 9 0 22 -11 13 -10 15 12 9
14 -4 55 -7 91 -7z m-6034 -6 c-3 -3 -12 -4 -19 -1 -8 3 -5 6 6 6 11 1 17 -2
13 -5z m1388 -4 c-3 -5 -21 -10 -38 -9 -27 0 -29 2 -12 9 28 12 57 12 50 0z
m3855 -1 c0 -11 -42 -19 -102 -19 -54 0 -83 12 -56 23 18 7 158 3 158 -4z
m-1105 -9 c15 -7 10 -9 -23 -9 -26 -1 -41 3 -37 9 7 12 32 12 60 0z m1335 1
c0 -5 3 -16 6 -24 3 -10 -3 -20 -15 -27 -19 -10 -21 -8 -21 25 0 24 4 35 15
35 8 0 15 -4 15 -9z m267 -23 c-3 -7 -5 -2 -5 12 0 14 2 19 5 13 2 -7 2 -19 0
-25z m-1683 12 c-6 -6 -21 -6 -39 -1 -30 9 -30 9 10 10 25 1 36 -2 29 -9z
m3486 0 c0 -13 -11 -13 -30 0 -12 8 -11 10 8 10 12 0 22 -4 22 -10z m-6317 -7
c-7 -2 -21 -2 -30 0 -10 3 -4 5 12 5 17 0 24 -2 18 -5z m4420 -34 c-1 -19 -6
-63 -10 -99 l-8 -65 -5 75 c-3 41 -3 88 -1 103 5 39 26 27 24 -14z m682 30
c-22 -4 -49 -8 -60 -7 -16 0 -15 2 5 8 14 4 41 8 60 8 l35 0 -40 -9z m281 4
c-7 -7 -87 -5 -95 3 -2 2 20 4 49 4 29 0 50 -3 46 -7z m-7276 -37 c-5 -5 -3
-15 6 -24 8 -8 13 -17 10 -20 -8 -7 -36 18 -36 33 0 8 -5 15 -12 17 -6 2 -8 9
-4 16 5 9 12 9 26 0 12 -8 16 -16 10 -22z m120 24 c0 -5 -5 -10 -11 -10 -5 0
-7 5 -4 10 3 6 8 10 11 10 2 0 4 -4 4 -10z m1557 -4 c4 -3 -25 -6 -63 -7 -38
0 -98 -2 -134 -4 l-65 -3 70 12 c70 12 181 13 192 2z m3177 6 c3 -5 -1 -9 -9
-9 -8 0 -12 4 -9 9 3 4 7 8 9 8 2 0 6 -4 9 -8z m1506 -52 c-5 -29 -11 -89 -11
-134 -1 -44 -4 -69 -6 -53 -2 15 -8 27 -13 27 -9 0 -6 33 11 130 13 68 20 93
25 87 2 -2 0 -28 -6 -57z m498 53 c-10 -2 -28 -2 -40 0 -13 2 -5 4 17 4 22 1
32 -1 23 -4z m-6705 -10 c-7 -2 -13 -11 -13 -18 0 -7 -7 -16 -16 -19 -25 -10
-26 -7 -7 19 10 13 25 24 33 24 10 0 11 -2 3 -6z m3800 0 c-13 -2 -33 -2 -45
0 -13 2 -3 4 22 4 25 0 35 -2 23 -4z m2321 -27 c-3 -15 -8 -25 -11 -23 -2 3
-1 17 3 31 3 15 8 25 11 23 2 -3 1 -17 -3 -31z m526 19 c10 -12 9 -15 -4 -15
-10 0 -15 4 -12 8 3 5 -23 7 -57 6 -50 -2 -55 -1 -27 5 56 13 87 12 100 -4z
m1267 9 c-3 -3 -12 -4 -19 -1 -8 3 -5 6 6 6 11 1 17 -2 13 -5z m106 -1 c-13
-2 -33 -2 -45 0 -13 2 -3 4 22 4 25 0 35 -2 23 -4z m64 1 c-3 -3 -12 -4 -19
-1 -8 3 -5 6 6 6 11 1 17 -2 13 -5z m-9001 -52 c-23 -37 -46 -61 -46 -48 0 10
64 96 68 92 2 -2 -8 -22 -22 -44z m7627 31 c-7 -2 -19 -2 -25 0 -7 3 -2 5 12
5 14 0 19 -2 13 -5z m-2008 -14 c-22 -4 -53 -7 -70 -7 -26 1 -24 2 10 8 22 4
54 7 70 7 25 1 23 -1 -10 -8z m1062 5 c-3 -3 -12 -4 -19 -1 -8 3 -5 6 6 6 11
1 17 -2 13 -5z m320 -26 c-3 -8 -6 -5 -6 6 -1 11 2 17 5 13 3 -3 4 -12 1 -19z
m-5418 8 c-12 -10 -79 -16 -79 -6 0 5 19 10 42 10 23 0 39 -2 37 -4z m4894 -3
c-13 -2 -33 -2 -45 0 -13 2 -3 4 22 4 25 0 35 -2 23 -4z m1220 0 c-7 -2 -19
-2 -25 0 -7 3 -2 5 12 5 14 0 19 -2 13 -5z m160 0 c-7 -2 -19 -2 -25 0 -7 3
-2 5 12 5 14 0 19 -2 13 -5z m971 -13 c70 -1 126 -4 123 -6 -10 -10 -297 -14
-297 -4 0 6 -5 10 -11 10 -5 0 -7 -5 -4 -11 5 -7 -13 -10 -56 -8 -35 1 -68 1
-74 -1 -24 -6 -105 1 -105 10 0 11 122 18 225 14 39 -2 128 -4 199 -4z m-1229
-21 c5 -5 -5 -9 -25 -10 -29 0 -31 -2 -15 -9 22 -10 23 -9 -169 -16 -60 -2
-111 -6 -114 -9 -10 -10 -22 -5 -22 10 0 10 10 15 33 15 17 0 39 5 47 10 11 7
5 10 -25 11 -31 0 -35 2 -20 8 26 11 297 1 310 -10z m-2690 1 c-27 -12 -43
-12 -25 0 8 5 22 9 30 9 10 0 8 -3 -5 -9z m-4005 -21 c12 -7 11 -8 -5 -9 -12
0 -26 -5 -33 -12 -9 -9 -13 -7 -18 5 -5 13 -10 14 -26 6 -27 -15 -38 -1 -13
17 20 15 63 11 95 -7z m7123 14 c-7 -2 -19 -2 -25 0 -7 3 -2 5 12 5 14 0 19
-2 13 -5z m-3360 -20 c-7 -2 -19 -2 -25 0 -7 3 -2 5 12 5 14 0 19 -2 13 -5z
m2311 -27 c-3 -15 -8 -25 -11 -23 -2 3 -1 17 3 31 3 15 8 25 11 23 2 -3 1 -17
-3 -31z m-6089 -16 c3 -5 1 -10 -4 -10 -6 0 -11 5 -11 10 0 6 2 10 4 10 3 0 8
-4 11 -10z m-931 -49 c-16 -22 -35 -43 -43 -46 -12 -5 3 19 52 83 5 7 12 10
14 8 3 -3 -8 -23 -23 -45z m918 7 c-7 -7 -12 -8 -12 -2 0 14 12 26 19 19 2 -3
-1 -11 -7 -17z m74 -24 c-9 -9 -20 -13 -24 -9 -4 3 2 13 12 21 25 18 33 10 12
-12z m-146 2 c0 -2 -7 -9 -15 -16 -13 -11 -14 -10 -9 4 5 14 24 23 24 12z
m6271 -119 c-8 -8 -11 -3 -11 22 0 19 -4 30 -10 26 -13 -8 -13 -2 3 31 l12 28
9 -48 c6 -33 5 -51 -3 -59z m-6131 79 c0 -2 -8 -10 -17 -17 -16 -13 -17 -12
-4 4 13 16 21 21 21 13z m6047 -38 c-3 -7 -5 -2 -5 12 0 14 2 19 5 13 2 -7 2
-19 0 -25z m-6157 3 c0 -6 -5 -13 -11 -16 -5 -4 -15 -18 -20 -32 -5 -14 -12
-23 -16 -19 -7 7 28 76 39 76 5 0 8 -4 8 -9z m80 -11 c0 -5 -4 -10 -10 -10 -5
0 -10 5 -10 10 0 6 5 10 10 10 6 0 10 -4 10 -10z m6067 -52 c-3 -8 -6 -5 -6 6
-1 11 2 17 5 13 3 -3 4 -12 1 -19z m-7152 -7 c-3 -6 -11 -11 -17 -11 -6 0 -6
6 2 15 14 17 26 13 15 -4z m26 -44 c-10 -9 -11 -8 -5 6 3 10 9 15 12 12 3 -3
0 -11 -7 -18z m920 -70 c-8 -8 -11 -7 -11 4 0 20 13 34 18 19 3 -7 -1 -17 -7
-23z m5856 1 c-3 -8 -6 -5 -6 6 -1 11 2 17 5 13 3 -3 4 -12 1 -19z m273 -65
c-11 -17 -11 -17 -6 0 3 10 7 33 8 50 l1 32 4 -32 c2 -18 -1 -41 -7 -50z
m-4440 57 c0 -5 -7 -10 -16 -10 -8 0 -12 5 -9 10 3 6 10 10 16 10 5 0 9 -4 9
-10z m-1679 -34 c-7 -8 -23 -36 -36 -63 -13 -26 -24 -42 -24 -34 -1 11 -6 10
-21 -4 -15 -14 -17 -21 -9 -32 14 -16 -3 -63 -32 -89 -10 -9 -19 -22 -19 -28
-1 -19 -53 -72 -58 -58 -2 6 -8 9 -13 6 -6 -3 -5 -12 3 -22 8 -10 9 -13 1 -9
-7 4 -14 -1 -18 -13 -8 -24 -25 -27 -25 -4 0 26 33 74 51 74 16 0 49 30 46 41
-1 4 11 26 26 49 30 47 29 64 -3 35 -11 -10 -23 -15 -28 -10 -4 4 -1 10 6 12
16 6 112 98 112 107 0 12 34 55 44 56 5 0 3 -6 -3 -14z m-171 -60 c0 -3 -4 -8
-10 -11 -5 -3 -10 -1 -10 4 0 6 5 11 10 11 6 0 10 -2 10 -4z m163 -46 c-13
-27 -28 -52 -33 -55 -16 -10 -12 5 11 41 11 19 17 34 14 34 -4 0 -2 7 5 15 25
30 27 14 3 -35z m6126 0 c0 -9 -4 -8 -9 5 -5 11 -9 27 -9 35 0 9 4 8 9 -5 5
-11 9 -27 9 -35z m-279 -24 c0 -14 -4 -28 -10 -31 -6 -4 -10 7 -10 24 0 17 5
31 10 31 6 0 10 -11 10 -24z m-4300 -2 c0 -2 -7 -4 -15 -4 -8 0 -15 4 -15 10
0 5 7 7 15 4 8 -4 15 -8 15 -10z m-1710 -29 c0 -8 -7 -15 -15 -15 -13 0 -14 3
-3 15 16 18 18 18 18 0z m6217 -27 c-3 -8 -6 -5 -6 6 -1 11 2 17 5 13 3 -3 4
-12 1 -19z m124 -15 c-10 -17 -10 -16 -11 3 0 23 13 41 18 25 2 -6 -1 -18 -7
-28z m86 -5 c-3 -8 -6 -5 -6 6 -1 11 2 17 5 13 3 -3 4 -12 1 -19z m-290 -110
c-3 -8 -6 -5 -6 6 -1 11 2 17 5 13 3 -3 4 -12 1 -19z m83 -10 c-1 -28 -2 -30
-11 -15 -6 10 -8 25 -5 33 9 24 16 16 16 -18z m162 -57 c-3 -28 -9 -41 -23
-44 -10 -3 -19 -1 -19 4 0 5 5 9 10 9 6 0 10 18 10 40 0 28 4 38 13 34 8 -3
11 -18 9 -43z m-6421 16 c-10 -9 -11 -8 -5 6 3 10 9 15 12 12 3 -3 0 -11 -7
-18z m-42 -54 c-1 -41 -2 -43 -8 -18 -5 24 -8 26 -13 13 -4 -10 -5 -24 -2 -31
2 -7 -3 -21 -11 -32 -15 -19 -16 -17 -11 28 11 89 47 121 45 40z m6202 -9 l-9
-39 -1 41 c-1 22 2 44 6 48 12 12 14 -8 4 -50z m-134 -26 c-3 -8 -6 -5 -6 6
-1 11 2 17 5 13 3 -3 4 -12 1 -19z m100 -60 c-3 -8 -6 -5 -6 6 -1 11 2 17 5
13 3 -3 4 -12 1 -19z m-6193 -6 c-5 -4 -14 -25 -19 -46 -6 -22 -15 -41 -22
-43 -8 -3 -9 6 -3 32 8 37 39 80 49 70 3 -4 1 -9 -5 -13z m6263 -174 c-3 -8
-6 -5 -6 6 -1 11 2 17 5 13 3 -3 4 -12 1 -19z m-6367 -31 c0 -7 -7 -23 -16
-35 -8 -12 -12 -27 -8 -34 4 -6 3 -8 -3 -5 -13 8 -38 -40 -38 -73 0 -18 -6
-26 -22 -28 -13 -2 -23 -8 -23 -13 0 -6 6 -7 13 -3 6 3 1 -4 -13 -17 -54 -52
-88 -119 -59 -119 5 0 -4 -15 -20 -32 -17 -18 -31 -40 -31 -49 0 -8 -12 -26
-26 -40 -14 -13 -32 -37 -40 -54 -8 -16 -23 -46 -34 -65 -11 -21 -19 -55 -20
-86 0 -37 -4 -54 -15 -58 -8 -3 -15 -12 -15 -21 0 -8 -6 -15 -12 -15 -10 0
-10 -2 0 -9 11 -7 11 -11 0 -22 -20 -20 -68 -109 -68 -125 0 -8 -4 -14 -10
-14 -5 0 -10 -5 -10 -12 0 -14 -50 -81 -57 -75 -2 3 2 16 10 29 8 12 17 41 21
63 3 22 17 62 31 89 14 27 25 55 25 62 0 7 8 19 18 26 18 14 52 70 52 87 0 6
-7 7 -17 4 -12 -5 -14 -3 -8 7 5 9 4 11 -3 6 -7 -4 -12 -13 -12 -20 0 -7 -7
-21 -16 -32 -15 -18 -15 -17 -10 15 7 42 49 99 82 111 13 5 32 27 43 49 11 21
27 45 35 53 8 9 21 31 30 52 8 20 20 36 27 36 7 0 9 9 6 22 -6 21 9 58 43 108
38 56 54 86 52 96 -1 6 14 28 33 50 19 21 35 44 35 49 0 15 30 55 41 55 5 0 9
-6 9 -13z m1715 -127 l20 -25 -22 19 c-13 11 -23 24 -23 29 0 6 1 8 3 6 1 -2
11 -15 22 -29z m-1925 -54 c-6 -19 -24 -53 -41 -76 -16 -22 -27 -45 -24 -50 4
-6 2 -10 -3 -10 -17 0 -22 30 -9 50 6 11 15 20 19 20 5 0 8 8 8 18 0 11 9 27
20 37 11 10 22 26 26 37 3 11 8 17 11 14 3 -2 0 -20 -7 -40z m3490 -22 c0 -8
-5 -12 -10 -9 -6 4 -8 11 -5 16 9 14 15 11 15 -7z m-3567 -204 c-3 -12 -8 -19
-11 -16 -5 6 5 36 12 36 2 0 2 -9 -1 -20z m-62 -107 c-11 -21 -20 -32 -21 -25
0 17 30 75 36 69 3 -3 -4 -22 -15 -44z m6766 -5 c-2 -13 -4 -5 -4 17 -1 22 1
32 4 23 2 -10 2 -28 0 -40z m-6827 18 c0 -3 -4 -8 -10 -11 -5 -3 -10 -1 -10 4
0 6 5 11 10 11 6 0 10 -2 10 -4z m190 -72 c0 -4 -10 -22 -22 -42 -12 -19 -22
-51 -24 -71 -3 -52 -3 -51 -18 -51 -21 0 -29 47 -11 73 8 13 13 26 10 29 -3 2
6 11 20 18 14 7 25 22 25 32 0 10 5 18 10 18 6 0 10 -3 10 -6z m3627 -146 c-4
-29 -13 -78 -21 -108 l-14 -55 35 -72 36 -72 -15 -58 c-15 -62 -5 -142 20
-151 7 -2 12 -8 12 -13 0 -6 -5 -7 -12 -3 -7 4 -8 3 -4 -4 12 -19 -4 -35 -20
-21 -27 22 -4 -70 38 -155 22 -43 37 -80 35 -83 -6 -6 -87 112 -87 126 0 6 -5
11 -11 11 -6 0 -8 -7 -5 -15 7 -19 -3 -22 -76 -28 l-58 -4 -21 41 c-20 39 -20
40 -1 55 37 29 47 80 34 173 -6 46 -14 172 -18 280 l-6 197 58 4 c33 2 70 4
83 5 23 2 24 0 18 -50z m2854 -71 c-8 -8 -10 -2 -7 23 6 47 8 50 13 16 3 -16
0 -33 -6 -39z m-6552 8 c0 -5 -6 -1 -14 9 -8 11 -15 24 -15 30 0 5 7 1 15 -10
8 -10 14 -23 14 -29z m-78 -105 c-20 -44 -36 -66 -26 -35 18 53 28 75 36 75 4
0 0 -18 -10 -40z m606 -42 c-3 -7 -5 -2 -5 12 0 14 2 19 5 13 2 -7 2 -19 0
-25z m120 -30 c-3 -8 -6 -5 -6 6 -1 11 2 17 5 13 3 -3 4 -12 1 -19z m-767 -2
c0 -3 -4 -8 -10 -11 -5 -3 -10 -1 -10 4 0 6 5 11 10 11 6 0 10 -2 10 -4z
m-128 -78 c-7 -7 -12 -8 -12 -2 0 14 12 26 19 19 2 -3 -1 -11 -7 -17z m785
-35 c-3 -10 -5 -4 -5 12 0 17 2 24 5 18 2 -7 2 -21 0 -30z m-727 17 c0 -5 -11
-21 -25 -35 -14 -14 -23 -25 -19 -25 4 0 -4 -12 -18 -27 -26 -29 -46 -69 -28
-58 6 3 10 3 10 -2 0 -10 -52 -54 -58 -49 -8 8 69 139 101 174 33 35 37 37 37
22z m4017 -312 c-2 -7 -10 -12 -16 -10 -7 1 -21 -2 -31 -8 -16 -9 -20 -7 -20
7 0 13 9 19 36 21 25 1 34 -2 31 -10z m-417 -78 c0 -11 -4 -20 -10 -20 -5 0
-10 7 -10 16 0 10 -5 12 -12 7 -19 -11 -38 -13 -38 -3 0 8 22 15 58 19 6 0 12
-8 12 -19z m165 -129 c3 -5 1 -12 -5 -16 -5 -3 -10 1 -10 9 0 18 6 21 15 7z
m-5 -41 c0 -5 -5 -10 -11 -10 -5 0 -7 5 -4 10 3 6 8 10 11 10 2 0 4 -4 4 -10z
m-450 -4 c0 -3 -4 -8 -10 -11 -5 -3 -10 -1 -10 4 0 6 5 11 10 11 6 0 10 -2 10
-4z"/>
<path d="M8556 8965 c-11 -8 -15 -15 -9 -15 6 0 16 7 23 15 16 19 11 19 -14 0z"/>
<path d="M6000 8270 c0 -5 7 -10 16 -10 8 0 12 5 9 10 -3 6 -10 10 -16 10 -5
0 -9 -4 -9 -10z"/>
<path d="M6064 8192 c3 -6 -2 -13 -11 -15 -16 -4 -16 -5 -1 -6 21 -1 32 15 17
25 -7 4 -9 3 -5 -4z"/>
<path d="M6418 7978 c9 -9 15 -9 24 0 9 9 7 12 -12 12 -19 0 -21 -3 -12 -12z"/>
<path d="M5996 7815 c4 -8 10 -15 15 -15 4 0 6 7 3 15 -4 8 -10 15 -15 15 -4
0 -6 -7 -3 -15z"/>
<path d="M6000 7412 c0 -5 9 -12 21 -15 13 -3 19 -1 16 6 -5 15 -37 22 -37 9z"/>
<path d="M5025 5550 c4 -6 11 -8 16 -5 14 9 11 15 -7 15 -8 0 -12 -5 -9 -10z"/>
<path d="M5055 5510 c-3 -5 1 -10 9 -10 8 0 18 5 21 10 3 6 -1 10 -9 10 -8 0
-18 -4 -21 -10z"/>
<path d="M4908 5493 c6 -2 18 -2 25 0 6 3 1 5 -13 5 -14 0 -19 -2 -12 -5z"/>
<path d="M5028 5483 c7 -3 16 -2 19 1 4 3 -2 6 -13 5 -11 0 -14 -3 -6 -6z"/>
<path d="M2035 5400 c3 -5 11 -10 16 -10 6 0 7 5 4 10 -3 6 -11 10 -16 10 -6
0 -7 -4 -4 -10z"/>
<path d="M7276 4994 c-8 -40 1 -94 15 -94 5 0 9 29 9 65 0 70 -14 87 -24 29z"/>
<path d="M5248 4703 c6 -2 18 -2 25 0 6 3 1 5 -13 5 -14 0 -19 -2 -12 -5z"/>
<path d="M5557 4693 c18 -2 50 -2 70 0 21 2 7 4 -32 4 -38 0 -55 -2 -38 -4z"/>
<path d="M2068 4613 c12 -2 32 -2 45 0 12 2 2 4 -23 4 -25 0 -35 -2 -22 -4z"/>
<path d="M1650 4600 c8 -5 26 -10 40 -10 14 0 32 5 40 10 11 7 -1 10 -40 10
-39 0 -51 -3 -40 -10z"/>
<path d="M1938 4593 c17 -2 47 -2 65 0 17 2 3 4 -33 4 -36 0 -50 -2 -32 -4z"/>
<path d="M1808 4583 c7 -3 16 -2 19 1 4 3 -2 6 -13 5 -11 0 -14 -3 -6 -6z"/>
<path d="M1597 4569 c7 -7 15 -10 18 -7 3 3 -2 9 -12 12 -14 6 -15 5 -6 -5z"/>
<path d="M675 3890 c-3 -5 -2 -10 4 -10 5 0 13 5 16 10 3 6 2 10 -4 10 -5 0
-13 -4 -16 -10z"/>
<path d="M646 3853 c-6 -14 -5 -15 5 -6 7 7 10 15 7 18 -3 3 -9 -2 -12 -12z"/>
<path d="M6683 3483 c9 -2 23 -2 30 0 6 3 -1 5 -18 5 -16 0 -22 -2 -12 -5z"/>
<path d="M6143 3463 c9 -2 23 -2 30 0 6 3 -1 5 -18 5 -16 0 -22 -2 -12 -5z"/>
<path d="M5787 3453 c18 -2 50 -2 70 0 21 2 7 4 -32 4 -38 0 -55 -2 -38 -4z"/>
<path d="M6028 3453 c12 -2 30 -2 40 0 9 3 -1 5 -23 4 -22 0 -30 -2 -17 -4z"/>
<path d="M5443 3443 c9 -2 25 -2 35 0 9 3 1 5 -18 5 -19 0 -27 -2 -17 -5z"/>
<path d="M5578 3443 c29 -2 74 -2 100 0 26 2 2 3 -53 3 -55 0 -76 -1 -47 -3z"/>
<path d="M6816 3435 c-4 -11 1 -15 17 -15 16 0 18 3 8 9 -11 7 -11 9 0 14 10
4 10 6 -2 6 -9 1 -19 -6 -23 -14z"/>
<path d="M4988 3423 c7 -3 16 -2 19 1 4 3 -2 6 -13 5 -11 0 -14 -3 -6 -6z"/>
<path d="M5080 3419 c-33 -4 -21 -6 45 -7 89 0 103 3 35 10 -19 2 -55 0 -80
-3z"/>
<path d="M4641 3406 c9 -9 124 -13 149 -5 16 4 -8 7 -64 8 -49 1 -87 -1 -85
-3z"/>
<path d="M8423 3503 c15 -2 39 -2 55 0 15 2 2 4 -28 4 -30 0 -43 -2 -27 -4z"/>
<path d="M7723 3483 c15 -2 39 -2 55 0 15 2 2 4 -28 4 -30 0 -43 -2 -27 -4z"/>
<path d="M8353 3483 c15 -2 39 -2 55 0 15 2 2 4 -28 4 -30 0 -43 -2 -27 -4z"/>
<path d="M7674 3471 c4 -6 0 -11 -8 -11 -9 0 -16 -5 -16 -11 0 -6 7 -8 16 -5
9 3 66 6 126 6 61 0 109 2 107 4 -2 2 -47 6 -99 7 -52 2 -103 7 -114 12 -13 6
-16 6 -12 -2z"/>
<path d="M8126 3469 c6 -11 31 -12 37 -1 3 4 -6 8 -19 8 -13 1 -21 -2 -18 -7z"/>
<path d="M8208 3473 c6 -2 18 -2 25 0 6 3 1 5 -13 5 -14 0 -19 -2 -12 -5z"/>
<path d="M7928 3463 c12 -2 30 -2 40 0 9 3 -1 5 -23 4 -22 0 -30 -2 -17 -4z"/>
<path d="M8030 3456 c0 -9 50 -12 62 -5 8 6 -1 9 -24 9 -21 0 -38 -2 -38 -4z"/>
<path d="M7628 3423 c7 -3 16 -2 19 1 4 3 -2 6 -13 5 -11 0 -14 -3 -6 -6z"/>
<path d="M2753 3343 c15 -2 37 -2 50 0 12 2 0 4 -28 4 -27 0 -38 -2 -22 -4z"/>
<path d="M2318 3333 c12 -2 30 -2 40 0 9 3 -1 5 -23 4 -22 0 -30 -2 -17 -4z"/>
<path d="M2625 3321 c-90 -9 -34 -17 75 -10 52 3 93 6 90 8 -11 6 -108 7 -165
2z"/>
<path d="M2065 3310 c-4 -6 16 -8 57 -4 82 9 86 14 10 14 -33 0 -64 -4 -67
-10z"/>
<path d="M2335 3310 c19 -7 18 -8 -5 -13 -14 -3 20 -3 74 0 150 8 169 21 31
21 -66 0 -111 -4 -100 -8z"/>
<path d="M1845 3300 l-40 -6 35 -6 c29 -4 25 -5 -19 -6 -61 -2 -63 -12 -4 -17
61 -5 166 7 151 16 -7 5 -26 9 -43 10 l-30 1 30 8 30 8 -35 -1 c-19 0 -53 -3
-75 -7z"/>
<path d="M1643 3283 c15 -2 37 -2 50 0 12 2 0 4 -28 4 -27 0 -38 -2 -22 -4z"/>
<path d="M6095 9010 c-3 -5 -1 -10 4 -10 6 0 11 5 11 10 0 6 -2 10 -4 10 -3 0
-8 -4 -11 -10z"/>
<path d="M6030 8950 c-12 -8 -10 -10 8 -10 13 0 20 4 17 10 -7 12 -6 12 -25 0z"/>
<path d="M5902 8814 c-17 -18 -12 -36 6 -25 8 5 12 15 10 24 -3 13 -5 13 -16
1z"/>
<path d="M5730 8709 c0 -5 5 -7 10 -4 6 3 10 8 10 11 0 2 -4 4 -10 4 -5 0 -10
-5 -10 -11z"/>
<path d="M5669 8664 c-8 -10 -9 -15 -2 -11 6 4 13 1 16 -5 2 -7 8 -10 12 -6 4
3 3 14 -2 23 -9 15 -11 15 -24 -1z"/>
<path d="M5593 8605 c-3 -9 -3 -19 1 -22 3 -4 6 2 6 12 0 14 3 15 15 5 12 -10
15 -10 15 4 0 20 -29 21 -37 1z"/>
<path d="M6985 8590 c-3 -5 -1 -10 4 -10 6 0 11 5 11 10 0 6 -2 10 -4 10 -3 0
-8 -4 -11 -10z"/>
<path d="M5490 8480 c0 -5 5 -10 11 -10 5 0 7 5 4 10 -3 6 -8 10 -11 10 -2 0
-4 -4 -4 -10z"/>
<path d="M6180 8465 c0 -8 5 -15 10 -15 6 0 10 7 10 15 0 8 -4 15 -10 15 -5 0
-10 -7 -10 -15z"/>
<path d="M5490 8440 c0 -5 5 -10 11 -10 5 0 7 5 4 10 -3 6 -8 10 -11 10 -2 0
-4 -4 -4 -10z"/>
<path d="M6235 8433 c3 -12 1 -24 -5 -28 -7 -4 -9 -18 -6 -31 4 -15 1 -26 -10
-32 -12 -7 -15 -16 -10 -28 7 -18 8 -18 19 2 7 12 18 19 25 17 6 -3 12 0 12 6
0 7 14 9 39 5 24 -4 41 -2 45 5 4 6 16 11 27 11 23 0 24 18 3 45 -11 14 -18
16 -21 8 -3 -8 -14 -11 -29 -7 -20 5 -24 2 -24 -15 0 -17 -6 -21 -32 -21 -31
1 -32 1 -14 15 11 8 22 15 26 15 3 0 11 10 19 21 13 21 12 22 -22 16 -23 -3
-38 -1 -41 6 -3 7 -3 2 -1 -10z"/>
<path d="M6390 8407 c1 -29 16 -38 45 -27 32 12 30 17 -14 30 -22 6 -31 5 -31
-3z"/>
<path d="M5475 8400 c4 -6 11 -8 16 -5 14 9 11 15 -7 15 -8 0 -12 -5 -9 -10z"/>
<path d="M5450 8330 c0 -5 5 -10 10 -10 6 0 10 5 10 10 0 6 -4 10 -10 10 -5 0
-10 -4 -10 -10z"/>
<path d="M6480 8330 c0 -5 4 -10 9 -10 6 0 13 5 16 10 3 6 -1 10 -9 10 -9 0
-16 -4 -16 -10z"/>
<path d="M6520 8325 c0 -8 9 -15 20 -15 11 0 20 4 20 9 0 6 24 12 53 14 45 3
42 4 -20 5 -59 2 -73 -1 -73 -13z"/>
<path d="M6573 8313 c-22 -8 -14 -23 13 -23 15 0 24 5 22 12 -5 14 -18 18 -35
11z"/>
<path d="M6700 8286 c0 -8 5 -18 10 -21 6 -3 10 3 10 14 0 12 -4 21 -10 21 -5
0 -10 -6 -10 -14z"/>
<path d="M6445 8230 c-7 -12 36 -30 71 -30 16 0 24 5 21 13 -2 6 -16 11 -31
10 -14 -1 -26 2 -26 8 0 12 -27 12 -35 -1z"/>
<path d="M6560 8204 c0 -12 6 -14 33 -8 17 4 40 7 50 6 9 0 17 3 17 9 0 5 -22
9 -50 9 -39 0 -50 -4 -50 -16z"/>
<path d="M6750 8035 c0 -23 24 -45 35 -33 7 6 -18 58 -27 58 -5 0 -8 -11 -8
-25z"/>
<path d="M6730 7941 c0 -5 9 -7 20 -4 11 3 20 7 20 9 0 2 -9 4 -20 4 -11 0
-20 -4 -20 -9z"/>
<path d="M1380 5774 c0 -8 5 -12 10 -9 6 3 10 10 10 16 0 5 -4 9 -10 9 -5 0
-10 -7 -10 -16z"/>
<path d="M1275 5580 c-3 -5 -1 -10 4 -10 6 0 11 5 11 10 0 6 -2 10 -4 10 -3 0
-8 -4 -11 -10z"/>
<path d="M960 5550 c0 -5 5 -10 11 -10 5 0 7 5 4 10 -3 6 -8 10 -11 10 -2 0
-4 -4 -4 -10z"/>
<path d="M960 5479 c0 -5 5 -7 10 -4 6 3 10 8 10 11 0 2 -4 4 -10 4 -5 0 -10
-5 -10 -11z"/>
<path d="M810 5450 c0 -5 -8 -10 -18 -10 -19 0 -42 -18 -42 -32 0 -17 30 -7
55 17 27 28 30 35 15 35 -5 0 -10 -4 -10 -10z"/>
<path d="M846 5445 c4 -8 8 -15 10 -15 2 0 4 7 4 15 0 8 -4 15 -10 15 -5 0 -7
-7 -4 -15z"/>
<path d="M482 5335 c-15 -33 -15 -32 6 -31 10 0 27 9 37 19 15 16 16 20 4 28
-23 14 -35 10 -47 -16z"/>
<path d="M618 5343 c7 -3 16 -2 19 1 4 3 -2 6 -13 5 -11 0 -14 -3 -6 -6z"/>
<path d="M66 5249 c-16 -16 -17 -19 -4 -19 18 0 43 26 31 33 -4 2 -17 -4 -27
-14z"/>
<path d="M866 5044 c-9 -25 -7 -64 4 -64 6 0 10 8 10 18 0 9 3 27 6 40 7 25
-11 31 -20 6z"/>
<path d="M1109 5048 c-3 -24 -4 -178 -2 -178 2 0 12 8 23 17 15 13 20 30 20
70 0 28 -4 63 -10 77 -10 27 -29 35 -31 14z"/>
<path d="M922 4940 c0 -19 2 -27 5 -17 2 9 2 25 0 35 -3 9 -5 1 -5 -18z"/>
<path d="M965 4880 c-7 -49 -2 -70 16 -70 5 0 9 27 9 60 0 73 -15 79 -25 10z"/>
<path d="M867 4853 c-3 -5 -1 -17 4 -28 7 -17 8 -17 8 8 1 27 -4 34 -12 20z"/>
<path d="M9230 4770 l-55 -7 63 -1 c40 -1 61 2 57 8 -3 6 -7 9 -8 8 -1 -1 -27
-4 -57 -8z"/>
<path d="M8248 4763 c7 -3 16 -2 19 1 4 3 -2 6 -13 5 -11 0 -14 -3 -6 -6z"/>
<path d="M9008 4763 c7 -3 16 -2 19 1 4 3 -2 6 -13 5 -11 0 -14 -3 -6 -6z"/>
<path d="M7808 4753 c18 -2 45 -2 60 0 15 2 0 4 -33 4 -33 0 -45 -2 -27 -4z"/>
<path d="M8708 4753 c12 -2 32 -2 45 0 12 2 2 4 -23 4 -25 0 -35 -2 -22 -4z"/>
<path d="M8813 4753 c9 -2 23 -2 30 0 6 3 -1 5 -18 5 -16 0 -22 -2 -12 -5z"/>
<path d="M8898 4753 c12 -2 32 -2 45 0 12 2 2 4 -23 4 -25 0 -35 -2 -22 -4z"/>
<path d="M8605 4740 c27 -12 35 -12 35 0 0 6 -12 10 -27 9 -25 0 -26 -1 -8 -9z"/>
<path d="M9028 4743 c12 -2 32 -2 45 0 12 2 2 4 -23 4 -25 0 -35 -2 -22 -4z"/>
<path d="M9265 4740 c-3 -5 3 -10 14 -10 12 0 21 5 21 10 0 6 -6 10 -14 10 -8
0 -18 -4 -21 -10z"/>
<path d="M7855 4730 c-14 -6 -4 -9 38 -9 36 -1 56 3 52 9 -7 12 -62 12 -90 0z"/>
<path d="M8272 4729 c20 -11 377 -26 366 -14 -3 3 -66 9 -140 11 -73 2 -158 6
-188 9 -41 4 -50 2 -38 -6z"/>
<path d="M9125 4730 c-7 -12 64 -13 83 -1 8 5 -4 8 -32 9 -25 1 -48 -2 -51 -8z"/>
<path d="M7978 4723 c7 -3 16 -2 19 1 4 3 -2 6 -13 5 -11 0 -14 -3 -6 -6z"/>
<path d="M8700 4721 c-35 -4 -50 -9 -42 -14 7 -5 24 -6 38 -3 14 4 24 2 24 -4
0 -6 -37 -10 -92 -11 -141 -1 -186 1 -268 12 -51 7 -87 7 -110 1 l-35 -10 45
-2 c25 -2 62 -2 83 0 21 1 45 -4 54 -11 20 -18 345 -17 351 0 2 6 11 11 20 11
15 0 15 2 2 10 -11 7 -2 9 30 8 25 0 35 -3 22 -5 -19 -4 -20 -6 -8 -19 18 -18
305 -22 349 -5 16 6 53 11 83 11 30 0 54 5 54 10 0 13 -50 13 -142 0 -48 -7
-114 -8 -193 -2 l-120 10 117 -1 c65 0 120 2 123 5 15 15 -266 21 -385 9z"/>
<path d="M8045 4709 c-92 -14 -89 -19 8 -13 102 7 172 23 97 22 -25 0 -72 -4
-105 -9z"/>
<path d="M8138 4685 c-3 -4 -47 -10 -96 -15 -127 -12 -159 -33 -37 -25 82 6
231 32 195 34 -8 1 -24 4 -35 7 -11 3 -23 2 -27 -1z"/>
<path d="M7805 4640 c-16 -7 -13 -9 18 -9 20 -1 37 4 37 9 0 12 -27 12 -55 0z"/>
<path d="M8073 4623 c9 -2 23 -2 30 0 6 3 -1 5 -18 5 -16 0 -22 -2 -12 -5z"/>
<path d="M716 4124 c-4 -10 -1 -14 6 -12 15 5 23 28 10 28 -5 0 -13 -7 -16
-16z"/>
<path d="M677 4078 c-8 -13 -28 -36 -42 -53 -29 -32 -69 -114 -60 -123 8 -8
34 30 35 50 0 10 13 32 28 50 36 42 65 88 59 94 -2 3 -11 -6 -20 -18z"/>
<path d="M520 3982 c0 -5 -8 -17 -17 -28 -36 -40 -83 -103 -83 -111 0 -4 14 7
30 25 17 18 30 30 30 26 0 -4 9 1 20 11 12 10 19 24 16 31 -2 6 2 21 10 33 9
12 11 21 5 21 -6 0 -11 -4 -11 -8z"/>
<path d="M219 3619 c-71 -80 -95 -120 -29 -49 24 25 56 60 73 78 16 18 28 34
25 37 -3 3 -34 -27 -69 -66z"/>
<path d="M9098 3523 c6 -2 18 -2 25 0 6 3 1 5 -13 5 -14 0 -19 -2 -12 -5z"/>
<path d="M9240 3515 c-9 -11 -17 -12 -30 -5 -25 13 -30 13 -30 -5 0 -11 13
-14 60 -14 52 1 60 4 60 20 0 23 -42 26 -60 4z"/>
<path d="M8940 3470 c0 -6 7 -10 15 -10 8 0 15 2 15 4 0 2 -7 6 -15 10 -8 3
-15 1 -15 -4z"/>
<path d="M9030 3460 c0 -5 11 -10 24 -10 14 0 28 5 31 10 4 6 -7 10 -24 10
-17 0 -31 -4 -31 -10z"/>
<path d="M9115 3460 c18 -8 18 -9 2 -9 -10 -1 -15 -6 -12 -11 4 -7 13 -6 27 1
12 7 55 11 95 10 45 -1 73 2 73 9 0 6 -38 10 -102 9 -67 0 -96 -3 -83 -9z"/>
<path d="M93 3394 c-24 -34 -53 -115 -53 -148 0 -13 -9 -31 -20 -41 -27 -25
-27 -50 0 -35 22 12 50 60 50 85 0 8 13 42 28 74 33 69 29 114 -5 65z"/>
<path d="M22 3127 c-12 -13 -22 -33 -22 -46 0 -26 10 -19 49 37 27 38 7 45
-27 9z"/>
<path d="M1 3024 c0 -11 3 -14 6 -6 3 7 2 16 -1 19 -3 4 -6 -2 -5 -13z"/>
<path d="M811 2824 c0 -11 3 -14 6 -6 3 7 2 16 -1 19 -3 4 -6 -2 -5 -13z"/>
<path d="M783 2752 c-13 -25 -21 -48 -18 -50 2 -3 10 8 17 24 7 16 17 32 21
35 5 4 7 13 5 22 -2 9 -12 -4 -25 -31z"/>
<path d="M663 2418 c-6 -7 -13 -20 -17 -28 -3 -8 -17 -33 -31 -55 -13 -22 -24
-44 -24 -50 0 -5 7 3 15 18 9 17 21 26 29 23 9 -3 16 5 20 24 3 15 15 36 26
46 10 9 19 21 19 26 0 12 -26 10 -37 -4z"/>
<path d="M600 2225 c-8 -9 -8 -15 -2 -15 12 0 26 19 19 26 -2 2 -10 -2 -17
-11z"/>
<path d="M461 2072 c-12 -17 -21 -33 -21 -37 0 -3 -11 -21 -24 -38 -27 -36
-62 -124 -53 -133 6 -6 37 60 37 78 0 5 20 41 46 80 44 69 56 107 15 50z"/>
<path d="M306 1863 c-6 -7 -37 -68 -58 -118 -19 -42 12 2 41 60 28 56 34 74
17 58z"/>
<path d="M268 1705 c-12 -20 -26 -85 -18 -85 12 0 32 56 28 77 -2 10 -6 14
-10 8z"/>
<path d="M151 1541 c-45 -67 -48 -73 -27 -65 8 3 20 19 26 35 7 16 16 29 20
29 8 0 32 51 27 57 -3 2 -23 -23 -46 -56z"/>
<path d="M117 1402 c-10 -10 -17 -24 -17 -30 0 -7 -4 -12 -8 -12 -9 0 -37 -58
-53 -110 l-8 -24 23 25 c13 14 29 43 36 65 7 21 21 54 31 72 21 36 20 40 -4
14z"/>
<path d="M6676 1374 c-9 -22 -8 -24 9 -24 8 0 15 9 15 20 0 24 -15 27 -24 4z"/>
<path d="M20 1350 c-12 -17 -20 -40 -18 -53 2 -17 8 -10 25 31 12 28 20 52 18
52 -2 0 -13 -14 -25 -30z"/>
<path d="M6280 1340 c0 -5 7 -10 15 -10 8 0 15 5 15 10 0 6 -7 10 -15 10 -8 0
-15 -4 -15 -10z"/>
<path d="M9180 1320 c0 -5 5 -10 10 -10 6 0 10 5 10 10 0 6 -4 10 -10 10 -5 0
-10 -4 -10 -10z"/>
<path d="M5932 1293 c6 -7 17 -13 24 -13 7 0 11 6 8 13 -2 7 -13 13 -24 13
-14 0 -16 -3 -8 -13z"/>
<path d="M6190 1220 c-13 -8 -13 -11 1 -26 22 -21 84 -10 75 13 -3 8 -6 17 -6
19 0 8 -55 4 -70 -6z"/>
<path d="M7465 1160 c3 -5 8 -10 11 -10 2 0 4 5 4 10 0 6 -5 10 -11 10 -5 0
-7 -4 -4 -10z"/>
<path d="M7460 1090 c-13 -8 -13 -10 2 -10 9 0 19 -6 21 -12 3 -7 6 -3 6 10 1
24 -6 27 -29 12z"/>
<path d="M7805 1030 c-3 -5 -1 -10 4 -10 6 0 11 5 11 10 0 6 -2 10 -4 10 -3 0
-8 -4 -11 -10z"/>
<path d="M9190 1010 c-12 -8 -11 -10 7 -10 12 0 25 5 28 10 8 13 -15 13 -35 0z"/>
<path d="M9270 1010 c0 -5 7 -7 15 -4 8 4 15 8 15 10 0 2 -7 4 -15 4 -8 0 -15
-4 -15 -10z"/>
<path d="M7070 1006 c0 -9 30 -14 35 -6 4 6 -3 10 -14 10 -12 0 -21 -2 -21 -4z"/>
<path d="M8603 973 c9 -2 25 -2 35 0 9 3 1 5 -18 5 -19 0 -27 -2 -17 -5z"/>
<path d="M9105 967 c-55 -4 -107 -7 -115 -8 -8 0 -37 -5 -65 -10 -27 -5 -97
-11 -155 -14 -57 -2 -122 -7 -145 -10 -89 -12 -225 -14 -219 -3 4 7 2 8 -5 4
-6 -4 -9 -12 -5 -17 7 -11 -59 -7 -90 6 -11 5 -21 3 -26 -4 -5 -9 -23 -11 -64
-6 -38 5 -56 4 -56 -4 0 -5 -7 -8 -16 -4 -22 8 2 23 38 23 15 0 30 5 34 12 5
8 -6 9 -41 5 -26 -4 -64 -7 -84 -7 -20 0 -31 -4 -26 -8 6 -4 11 -14 13 -23 3
-19 -39 -34 -49 -17 -4 6 -18 8 -33 4 -30 -7 -76 2 -76 16 0 5 9 6 20 3 12 -4
20 -2 20 5 0 6 -4 9 -9 5 -6 -3 -15 4 -21 15 -11 21 -45 26 -70 10 -13 -8 -12
-10 3 -10 10 0 15 -5 12 -10 -3 -6 1 -13 9 -16 22 -8 20 -36 -1 -32 -10 1 -23
-1 -30 -5 -6 -4 -39 -9 -73 -11 -34 -1 -65 -7 -68 -12 -4 -5 -43 -9 -87 -10
-121 0 -394 -14 -411 -21 -8 -3 -14 -1 -14 5 0 6 5 12 12 14 9 3 9 6 0 12 -7
4 -12 2 -12 -3 0 -6 -7 -11 -15 -11 -8 0 -15 5 -15 10 0 6 -11 10 -25 10 -14
0 -25 -4 -25 -10 0 -5 -9 -10 -19 -10 -24 0 -36 -16 -19 -23 7 -3 -4 -6 -25
-6 -21 -1 -48 -6 -60 -13 -12 -7 -49 -13 -82 -14 -33 -1 -70 -3 -83 -3 -13 -1
-21 -5 -18 -10 4 -5 -11 -7 -34 -4 -33 5 -40 3 -40 -11 0 -16 8 -17 68 -11 37
3 95 8 128 9 34 2 67 6 72 10 6 4 47 8 92 11 45 2 90 7 101 10 11 4 19 2 19
-4 0 -6 9 -11 20 -11 12 0 17 5 14 14 -4 10 21 14 123 20 149 7 207 12 403 32
80 9 169 15 197 14 29 0 125 4 213 10 88 6 197 11 242 12 46 0 88 4 93 8 20
15 72 22 190 25 66 2 122 4 125 5 3 1 16 3 30 4 14 1 33 6 44 11 11 5 26 4 37
-3 10 -7 22 -12 26 -12 5 0 1 4 -7 10 -22 14 -8 21 26 12 16 -4 91 -6 167 -4
l137 3 0 28 c0 27 -2 28 -47 27 -27 -1 -93 -4 -148 -9z m-65 -37 c0 -5 -4 -10
-10 -10 -5 0 -10 5 -10 10 0 6 5 10 10 10 6 0 10 -4 10 -10z m-920 -29 c0 -18
-18 -21 -30 -6 -10 13 -9 15 9 15 11 0 21 -4 21 -9z"/>
<path d="M8508 963 c7 -3 16 -2 19 1 4 3 -2 6 -13 5 -11 0 -14 -3 -6 -6z"/>
<path d="M8383 953 c9 -2 23 -2 30 0 6 3 -1 5 -18 5 -16 0 -22 -2 -12 -5z"/>
<path d="M8265 940 c-7 -12 22 -12 50 0 17 7 15 9 -12 9 -17 1 -35 -3 -38 -9z"/>
<path d="M8448 933 c7 -3 16 -2 19 1 4 3 -2 6 -13 5 -11 0 -14 -3 -6 -6z"/>
<path d="M8028 923 c7 -3 16 -2 19 1 4 3 -2 6 -13 5 -11 0 -14 -3 -6 -6z"/>
<path d="M5777 886 c-4 -9 -14 -12 -26 -9 -14 4 -21 1 -21 -10 0 -20 29 -30
46 -17 7 6 21 10 31 8 10 -2 17 2 16 10 -2 6 2 12 8 12 5 0 7 5 4 10 -9 15
-52 12 -58 -4z"/>
<path d="M728 853 c6 -2 18 -2 25 0 6 3 1 5 -13 5 -14 0 -19 -2 -12 -5z"/>
<path d="M6156 841 c-4 -5 -2 -12 3 -15 5 -4 12 -2 15 3 4 5 2 12 -3 15 -5 4
-12 2 -15 -3z"/>
<path d="M6945 830 c-16 -7 -17 -9 -3 -9 9 -1 20 4 23 9 7 11 7 11 -20 0z"/>
<path d="M800 820 c0 -5 5 -10 11 -10 5 0 7 5 4 10 -3 6 -8 10 -11 10 -2 0 -4
-4 -4 -10z"/>
<path d="M6635 810 l-40 -7 53 -2 c29 0 52 3 52 9 0 11 -5 11 -65 0z"/>
<path d="M6545 800 c-13 -6 -15 -9 -5 -9 8 0 22 4 30 9 18 12 2 12 -25 0z"/>
<path d="M8510 796 c0 -17 38 -41 48 -31 9 9 -13 40 -32 43 -9 2 -16 -3 -16
-12z"/>
<path d="M9190 790 c0 -5 5 -10 11 -10 5 0 7 5 4 10 -3 6 -8 10 -11 10 -2 0
-4 -4 -4 -10z"/>
<path d="M6299 788 c-10 -34 -6 -39 24 -33 l32 5 -30 -13 c-33 -15 -81 -1 -65
18 6 7 -6 10 -37 8 -26 -2 -50 -8 -54 -14 -5 -8 -8 -8 -10 0 -3 7 -26 9 -74 4
-55 -5 -65 -8 -45 -15 18 -5 15 -6 -10 -2 -19 4 -42 6 -50 6 -31 -1 -172 -11
-380 -27 -118 -9 -249 -18 -290 -21 -41 -2 -118 -8 -170 -14 -85 -9 -193 -16
-495 -35 -124 -8 -129 -10 -109 -40 9 -14 14 -30 12 -37 -3 -7 -12 1 -22 20
-15 30 -98 122 -109 122 -3 0 -3 -10 0 -22 4 -19 3 -21 -7 -8 -10 13 -11 12
-6 -3 3 -10 6 -21 6 -23 0 -2 11 -4 25 -4 16 0 25 -6 25 -15 0 -8 -4 -15 -10
-15 -18 0 -10 -22 10 -27 22 -6 26 -18 10 -28 -16 -10 0 -26 20 -20 14 5 23
-5 42 -42 12 -26 30 -53 38 -59 12 -10 12 -14 0 -29 -13 -15 -12 -17 5 -13 11
2 19 10 17 17 -1 6 4 19 12 27 19 18 32 18 16 -1 -6 -8 -9 -19 -5 -25 10 -17
25 -1 25 27 0 23 3 25 30 19 26 -5 30 -3 28 12 -2 14 5 17 45 18 26 0 50 4 53
7 4 3 15 2 25 -4 14 -7 19 -6 19 4 0 31 100 35 166 7 48 -21 48 -21 67 -1 17
16 18 23 8 35 -11 13 -9 13 13 3 14 -7 26 -15 26 -19 0 -4 19 -1 42 8 22 8 56
16 74 18 33 4 187 26 334 48 67 9 300 29 525 44 44 2 96 9 115 14 19 5 37 6
40 2 6 -8 48 -6 110 6 27 6 35 10 21 11 -16 1 -22 4 -15 11 8 8 65 12 277 19
20 1 27 6 27 21 0 21 -24 27 -36 9 -4 -6 -17 -8 -33 -3 -14 4 -36 6 -48 6 -12
-1 -34 3 -48 8 -20 7 -25 6 -25 -5 0 -13 -3 -13 -20 -3 -15 10 -22 10 -32 0
-27 -27 -54 -13 -49 26 1 8 -12 12 -39 12 -22 0 -40 -1 -41 -2z m-62 -34 c-3
-3 -12 -4 -19 -1 -8 3 -5 6 6 6 11 1 17 -2 13 -5z m-317 -30 c0 -8 -4 -12 -10
-9 -5 3 -10 10 -10 16 0 5 5 9 10 9 6 0 10 -7 10 -16z m-30 -14 c11 -7 7 -10
-17 -10 -17 0 -35 5 -38 10 -8 13 35 13 55 0z m-285 -10 c4 -6 -6 -10 -22 -10
-22 0 -25 2 -13 10 19 12 27 12 35 0z m-93 -7 c-6 -2 -10 -9 -6 -14 3 -5 1 -9
-4 -9 -6 0 -12 7 -16 15 -4 11 1 15 17 14 12 0 16 -3 9 -6z m-1002 -113 c0 -5
-2 -10 -4 -10 -3 0 -8 5 -11 10 -3 6 -1 10 4 10 6 0 11 -4 11 -10z"/>
<path d="M6433 783 c15 -2 37 -2 50 0 12 2 0 4 -28 4 -27 0 -38 -2 -22 -4z"/>
<path d="M8162 782 c-23 -3 -23 -4 -6 -23 23 -25 104 -25 104 1 0 11 -70 26
-98 22z"/>
<path d="M4368 743 c13 -3 19 -9 16 -15 -4 -7 -2 -8 4 -4 21 13 13 26 -15 25
-24 -2 -25 -2 -5 -6z"/>
<path d="M4318 718 c-16 -5 -28 -16 -28 -24 0 -8 -7 -17 -15 -21 -9 -3 -25
-23 -35 -44 -24 -45 -25 -53 -6 -46 7 3 19 0 25 -6 9 -9 16 -6 31 13 22 29 19
36 -9 20 -12 -6 -21 -8 -21 -4 0 17 56 93 79 107 29 18 20 20 -21 5z"/>
<path d="M4364 660 c-1 -31 1 -38 11 -30 6 5 15 7 19 3 4 -4 2 5 -3 21 -6 15
-9 32 -5 37 3 5 -1 9 -8 9 -9 0 -14 -14 -14 -40z"/>
<path d="M1460 620 c0 -5 5 -10 10 -10 6 0 10 5 10 10 0 6 -4 10 -10 10 -5 0
-10 -4 -10 -10z"/>
<path d="M4427 530 c3 -11 9 -17 14 -14 14 8 10 34 -5 34 -9 0 -12 -7 -9 -20z"/>
<path d="M4360 530 c0 -5 4 -10 9 -10 6 0 13 5 16 10 3 6 -1 10 -9 10 -9 0
-16 -4 -16 -10z"/>
<path d="M9245 530 c-4 -6 -3 -14 0 -20 9 -15 35 -12 35 4 0 17 -27 29 -35 16z"/>
<path d="M4295 521 c-10 -17 12 -21 25 -6 10 12 10 15 -3 15 -9 0 -18 -4 -22
-9z"/>
<path d="M1711 494 c0 -11 3 -14 6 -6 3 7 2 16 -1 19 -3 4 -6 -2 -5 -13z"/>
<path d="M4435 460 c-3 -5 1 -10 9 -10 9 0 16 5 16 10 0 6 -4 10 -9 10 -6 0
-13 -4 -16 -10z"/>
<path d="M4280 410 c0 -5 5 -10 10 -10 6 0 10 5 10 10 0 6 -4 10 -10 10 -5 0
-10 -4 -10 -10z"/>
<path d="M3763 355 c-8 -22 4 -30 22 -15 11 9 15 9 15 1 0 -7 5 -9 10 -6 8 5
7 11 -1 21 -15 19 -38 18 -46 -1z"/>
<path d="M4612 353 c2 -9 9 -18 16 -21 18 -6 15 25 -4 32 -11 4 -14 1 -12 -11z"/>
<path d="M3686 335 c-20 -20 -21 -36 -2 -29 15 6 30 34 22 41 -2 2 -11 -3 -20
-12z"/>
<path d="M4425 340 c-18 -8 -17 -9 8 -9 15 -1 27 4 27 9 0 12 -8 12 -35 0z"/>
<path d="M4355 330 c-4 -6 6 -10 22 -10 22 0 25 2 13 10 -19 12 -27 12 -35 0z"/>
<path d="M9164 325 c-3 -8 -3 -19 1 -25 3 -5 1 -10 -6 -10 -8 0 -8 -4 1 -15
11 -13 15 -12 36 7 21 21 21 24 7 40 -20 22 -32 23 -39 3z"/>
<path d="M4616 288 c23 -45 24 -46 22 -4 -1 28 -5 36 -20 36 -18 0 -18 -2 -2
-32z"/>
<path d="M1288 299 c-23 -13 -23 -36 1 -44 23 -7 48 2 55 22 12 31 -20 44 -56
22z"/>
<path d="M2660 290 c-11 -11 -24 -20 -28 -20 -5 0 -19 -11 -32 -25 -13 -14
-20 -25 -15 -25 15 0 92 53 104 72 15 25 -4 23 -29 -2z"/>
<path d="M3852 292 c4 -19 29 -23 35 -6 2 6 -6 14 -17 17 -16 4 -20 1 -18 -11z"/>
<path d="M3722 275 c0 -16 2 -22 5 -12 2 9 2 23 0 30 -3 6 -5 -1 -5 -18z"/>
<path d="M3580 277 c0 -8 7 -14 15 -14 11 0 12 4 4 14 -6 7 -13 13 -15 13 -2
0 -4 -6 -4 -13z"/>
<path d="M3532 220 c0 -14 2 -19 5 -12 2 6 2 18 0 25 -3 6 -5 1 -5 -13z"/>
<path d="M1923 212 c-18 -9 -33 -24 -36 -38 -5 -27 -2 -28 40 -14 24 9 30 17
30 40 0 17 -1 29 -1 29 -1 -1 -15 -8 -33 -17z"/>
<path d="M3724 186 c-8 -35 -7 -43 3 -39 11 4 20 83 10 83 -1 0 -7 -20 -13
-44z"/>
<path d="M4630 200 c0 -5 9 -10 20 -10 11 0 20 5 20 10 0 6 -9 10 -20 10 -11
0 -20 -4 -20 -10z"/>
<path d="M3667 175 c-4 -8 -2 -17 2 -20 5 -2 11 4 14 15 6 23 -8 27 -16 5z"/>
<path d="M1007 156 c-3 -8 2 -16 14 -19 21 -6 22 -5 13 17 -8 20 -20 21 -27 2z"/>
<path d="M4623 103 c-6 -37 -14 -76 -18 -85 -6 -15 -1 -18 31 -18 l39 0 0 48
c1 26 -2 49 -5 52 -3 3 -12 20 -20 38 l-15 33 -12 -68z"/>
<path d="M3941 134 c0 -11 3 -14 6 -6 3 7 2 16 -1 19 -3 4 -6 -2 -5 -13z"/>
<path d="M2230 131 c0 -5 5 -13 10 -16 6 -3 10 -2 10 4 0 5 -4 13 -10 16 -5 3
-10 2 -10 -4z"/>
<path d="M3520 121 c0 -5 -8 -7 -19 -4 -10 3 -21 0 -25 -5 -3 -5 8 -12 24 -14
24 -4 30 -1 30 14 0 10 -2 18 -5 18 -3 0 -5 -4 -5 -9z"/>
<path d="M3641 79 c-15 -70 -13 -90 5 -49 9 19 20 43 25 52 13 25 11 35 -5 41
-11 4 -17 -7 -25 -44z"/>
<path d="M3706 109 c-11 -36 -25 -75 -30 -89 -5 -11 0 -16 14 -16 19 0 21 4
15 33 -3 18 -2 33 3 33 15 0 24 32 13 43 -7 7 -12 6 -15 -4z"/>
<path d="M1055 100 c-3 -5 -1 -10 4 -10 6 0 11 5 11 10 0 6 -2 10 -4 10 -3 0
-8 -4 -11 -10z"/>
<path d="M1890 99 c0 -11 27 -12 34 -1 2 4 -4 9 -15 9 -10 1 -19 -2 -19 -8z"/>
<path d="M3766 88 c-9 -34 -7 -88 3 -88 4 0 8 25 8 55 0 30 -1 55 -2 55 -2 0
-5 -10 -9 -22z"/>
<path d="M3900 94 c0 -8 5 -12 10 -9 6 3 10 10 10 16 0 5 -4 9 -10 9 -5 0 -10
-7 -10 -16z"/>
<path d="M3442 90 c3 -8 15 -20 28 -27 28 -14 40 -32 33 -50 -3 -7 -1 -13 5
-13 14 0 21 57 8 70 -5 5 -19 10 -31 10 -12 0 -27 6 -34 13 -11 10 -13 9 -9
-3z"/>
<path d="M1400 80 c0 -5 5 -10 10 -10 6 0 10 5 10 10 0 6 -4 10 -10 10 -5 0
-10 -4 -10 -10z"/>
<path d="M3801 37 c-14 -37 -14 -36 9 -34 21 1 26 22 10 47 -7 11 -11 9 -19
-13z"/>
</g>
</svg>
